<?xml version="1.0" encoding="UTF-8"?>
<!DOCTYPE svg PUBLIC "-//W3C//DTD SVG 1.1//EN" "http://www.w3.org/Graphics/SVG/1.1/DTD/svg11.dtd">
<!-- Creator: CorelDRAW 2019 (64-Bit) -->
<svg xmlns="http://www.w3.org/2000/svg" xml:space="preserve" width="193.549mm" height="87.1351mm" version="1.1" style="shape-rendering:geometricPrecision; text-rendering:geometricPrecision; image-rendering:optimizeQuality; fill-rule:evenodd; clip-rule:evenodd"
viewBox="0 0 193.3746 87.0564"
 xmlns:xlink="http://www.w3.org/1999/xlink"
 xmlns:xodm="http://www.corel.com/coreldraw/odm/2003">
 <defs>
  <style type="text/css">
   <![CDATA[
    .fil0 {fill:#C9001F}
   ]]>
  </style>
 </defs>
 <g id="Layer_x0020_1">
  <metadata id="CorelCorpID_0Corel-Layer"/>
  <g id="_884328176">
   <path class="fil0" d="M185.7041 49.9359c-1.0561,0 -1.9131,-0.9099 -1.9131,-2.0294 0,-1.1223 0.8569,-2.027 1.9131,-2.027 1.0574,0 1.9147,0.9047 1.9147,2.027 0,1.1191 -0.8572,2.0294 -1.9147,2.0294zm0 -4.5488l0 0c-1.3119,0 -2.3797,1.1235 -2.3797,2.5194 0,1.3923 1.0678,2.5258 2.3797,2.5258 1.3146,0 2.3853,-1.1335 2.3853,-2.5258 0,-1.3959 -1.0707,-2.5194 -2.3853,-2.5194z"/>
   <g>
    <path class="fil0" d="M185.3047 48.3073l0.1504 0 0.1503 0.0074c0.1041,0.0076 0.1873,0.0167 0.2373,0.0433 0.0897,0.0318 0.161,0.1011 0.1938,0.1898 0.0252,0.0613 0.0384,0.1659 0.0384,0.3202 0.0079,0.1581 0.0224,0.2801 0.0474,0.3615l0.6633 0 -0.0239 -0.0728c-0.0066,-0.0253 -0.0158,-0.0493 -0.0158,-0.0775 0,-0.0236 -0.0079,-0.0465 -0.0079,-0.0751l0 -0.2315c0,-0.273 -0.0712,-0.4652 -0.2321,-0.584 -0.087,-0.0744 -0.2149,-0.1203 -0.3811,-0.157 0.1688,-0.013 0.3297,-0.0739 0.4641,-0.1756 0.128,-0.0951 0.1887,-0.2586 0.1887,-0.4758 0,-0.2907 -0.1201,-0.4979 -0.3588,-0.6245 -0.1371,-0.0742 -0.3085,-0.1236 -0.526,-0.1363 -0.0343,0 -0.2163,0 -0.5446,-0.0041l-0.7422 0 0 2.6142 0.6975 0 0.0013 -0.9222zm0.6513 -0.5682l0 0c-0.0882,0.0641 -0.2201,0.0984 -0.3837,0.0984l-0.269 0 0 -0.7637 0.1687 0c0.174,0 0.3073,0.0156 0.4047,0.0532 0.1438,0.0611 0.2137,0.156 0.2137,0.3005 0,0.1471 -0.0422,0.2459 -0.1346,0.3116zm-94.039 11.4026l0 0c1.5794,0 1.9547,1.5806 1.8804,2.4652 -0.3128,3.653 -5.2549,6.6243 -6.5073,6.7717 0.6701,-7.5525 2.8827,-9.1502 4.6269,-9.2368zm-49.2502 0.8063l0 0c-0.998,1.5205 -2.2574,3.1975 -3.8024,5.059 0.0829,-0.7645 0.1645,-1.4912 0.254,-2.1911 1.24,-9.9552 3.0733,-13.2985 5.4592,-12.8762 0.7774,0.1638 1.0951,1.0071 1.1147,1.6896 0.1751,2.1655 -0.7408,4.8316 -3.0255,8.3183l0 0.0004zm135.0736 9.2805l0 0c-1.2198,-1.846 -2.3128,-3.7722 -3.2753,-5.7644 -1.6007,2.2724 -3.3793,4.557 -5.2095,6.731 2.554,-0.0648 5.4784,-0.3266 8.4848,-0.967l0 0.0004zm-2.4724 -14.8302l0 0c0.9981,-1.895 1.6271,-3.5453 1.7089,-4.7718 0.0897,-0.729 -0.0329,-1.989 -1.064,-1.989 -1.7826,0 -1.7826,2.8778 -0.6448,6.7608zm-31.386 12.0181l0 0c4.3407,-5.0638 6.5611,-12.6597 6.0481,-15.7735 -0.1107,-0.6521 -0.3573,-1.1533 -0.9994,-1.0744 -2.0279,0.2602 -6.7562,9.4389 -5.0499,16.848l0.0012 0zm-25.035 6.6004l0 0c-1.709,-0.5525 -3.129,-1.5229 -3.9624,-2.5665 -0.0621,0.0512 -0.1187,0.0957 -0.1816,0.141 -0.0074,0.0792 -0.0238,0.1618 -0.0462,0.2402 -0.0449,6.3647 2.1221,12.25 4.5249,11.9674 2.5316,-0.4435 1.3371,-5.9016 -0.3347,-9.7825l0 0.0004zm-3.8039 -7.7665l0 0c4.9324,-4.9109 8.7738,-11.9057 8.7484,-15.6508 0,-0.7209 -0.1606,-1.3556 -0.8397,-1.3556 -1.5425,0 -6.5763,5.164 -7.9083,17.0064l-0.0003 0zm-14.3928 4.8619l0 0c-1.9819,0.181 -2.4188,4.7057 -6.3746,4.923 -2.6998,0.15 -3.9376,-3.2294 -3.9376,-3.2294 0,0 7.641,-3.5332 7.5849,-11.1641 -0.1233,-2.1866 -1.21,-5.6885 -5.2525,-5.6885 -1.7464,0 -3.6795,1.1301 -4.8263,2.3767 0.39,-2.0641 0.7576,-4.7145 0.9304,-8.3171 0.1131,-2.344 -1.5238,-2.5706 -2.158,-2.535 -0.4717,0.0238 -1.8439,0.3856 -2.0298,2.506 -0.6254,7.0722 -0.72,8.1227 -1.2857,12.6214 -1.0375,8.2631 -6.7782,11.1365 -10.5171,10.919 -1.5904,-0.0939 -4.0794,-0.9581 -4.0794,-5.3279 0,-4.6882 2.9344,-8.1584 4.4926,-7.9458 1.0969,0.1488 1.6627,1.3082 0.6899,2.9713 -0.7877,1.3793 -1.612,3.2988 0.4189,4.0874 2.4121,0.8377 4.1961,-2.7135 4.2609,-6.0037 0,-2.5636 -1.5837,-5.5574 -5.4676,-5.7513 -4.0875,-0.2042 -8.9703,5.4479 -8.9703,13.0468 0,0.6335 0.0433,1.2265 0.1234,1.7906 -0.2954,1.7177 -1.7403,3.4784 -3.1797,3.4784 -1.5633,0 -2.8824,-2.3502 -2.717,-5.349 0.1743,-3.0933 1.1055,-5.152 1.4984,-6.3839 0.8082,-2.5584 -0.15,-3.0745 -1.288,-3.2963 -0.8942,-0.1703 -2.3146,0.0657 -3.0625,2.6093 -0.6787,2.3075 -1.5628,5.461 -2.3324,7.7809 -0.4779,1.4412 -1.0884,3.0862 -1.8925,4.2111 -0.7071,0.8047 -1.4713,1.3343 -2.1868,1.3343 -2.5256,0.024 -0.3854,-5.1709 -0.3854,-8.7327 -0.0247,-1.0068 -0.7814,-2.845 -3.2969,-2.3353 2.7854,-4.2159 4.1941,-7.8221 4.106,-11.5073 -0.1684,-4.0461 -3.0048,-5.2212 -5.1461,-5.1791 -5.7358,0.1237 -8.7366,6.7723 -9.8262,22.3184 -5.1689,5.1558 -11.465,8.2684 -17.4704,7.7562 -8.4934,-0.7257 -12.871,-9.5177 -12.3036,-20.0608 0.7976,-14.7922 11.8501,-32.6389 22.3868,-31.5427 3.6932,0.3868 6.2402,3.8308 5.8466,11.2951 -0.4586,8.6537 -6.3613,21.2733 -12.5944,20.9028 -2.8773,-0.1707 -3.7762,-3.2832 -3.5565,-6.0364 0.4746,-5.9617 3.3384,-7.5973 3.5297,-10.0147 0.1114,-1.4212 -1.2667,-2.042 -2.277,-1.7035 -1.7344,0.5853 -5.1897,5.1284 -5.6108,11.5904 -0.5146,7.8952 4.4093,10.3591 7.3279,10.5311 8.6353,0.5126 17.0625,-12.246 17.7724,-25.649 0.4556,-8.6744 -3.1189,-14.2754 -9.8851,-15.0445 -13.1567,-1.492 -26.9789,16.7387 -27.685,35.8342 -0.4243,11.4172 4.7927,23.3684 16.9592,24.2774 5.8122,0.3946 11.8945,-2.0257 17.2158,-6.3679 -0.0101,0.9724 0,1.8378 -0.0029,2.4881 0.0483,1.5994 0.5913,2.9798 2.256,2.9264 1.5883,-0.0585 2.0066,-1.2719 1.9692,-2.727 -0.0204,-0.8454 -0.0141,-1.6656 0.0042,-2.4633 0.348,-6.9528 3.6307,-7.9589 4.9601,-7.7104 1.8325,0.4072 0.3722,2.167 0.5547,7.157 0.1296,3.5758 2.8973,4.5294 4.1688,4.5294 3.0062,0 5.6169,-2.2945 7.146,-5.7121l0.0534 -0.0409c1.3281,3.503 3.5806,4.7577 5.3788,4.7577 2.1092,0 4.106,-1.6283 5.3542,-3.436 1.7068,2.2533 4.2184,3.2457 6.0926,3.3376 3.8015,0.1825 7.03,-1.6484 9.4559,-4.1059 -0.2822,1.9335 -0.6229,4.5331 -0.6229,4.9566 0,1.1485 0.5089,1.9607 1.5831,2.0862 1.768,0.205 3.0586,-1.0436 3.6108,-7.1727 0,0 2.4978,6.0503 8.045,6.0503 5.5593,0 7.9641,-5.6251 7.9641,-7.3416 0,-0.4975 -0.1776,-1.7017 -1.5197,-1.5754l0.0002 0zm-53.4343 -32.3719l0 0 0 0.0004c0,1.6264 -2.9472,0.4108 -8.9828,4.8344 0.5441,-2.4268 0.8958,-4.8985 1.0245,-7.3478 0.0543,-1.0367 0.0615,-2.034 0.0227,-3.0036 3.2844,0.3189 7.9356,3.7201 7.9356,5.5165zm142.7917 41.3093l0 0c-3.2738,-0.1777 -6.6664,-2.7139 -9.6857,-6.3322 -5.3321,1.2848 -10.7988,1.539 -14.608,1.5083 -3.1618,3.436 -6.1877,6.2986 -8.3489,7.9257 0,0 -2.9139,2.3252 -4.3287,0.3504 -0.8267,-1.3257 -0.4061,-2.7539 1.867,-4.2719 1.4187,-0.9525 3.2013,-2.4873 5.1317,-4.3804 -3.2606,-0.9404 -2.4576,-4.5206 0.7291,-4.1086 0.2321,0.0319 1.2882,0.1899 2.9179,0.314 3.1605,-3.4788 6.3725,-7.4842 8.8499,-11.1537 -1.1667,-3.2189 -1.8484,-6.2767 -1.8484,-8.6754 0,-3.1477 1.7009,-6.711 5.1619,-6.711 3.3517,0 5.0657,2.9498 5.0657,5.9992 0,2.5936 -1.4978,6.1029 -3.7829,9.8871 1.3093,2.9528 3.0036,6.0184 4.9076,8.64 2.0529,-0.7066 4.0742,-1.6356 5.9743,-2.8331 2.5606,-1.6205 4.7637,1.5001 2.0753,3.4988 -1.6165,1.0722 -3.4058,1.9428 -5.2807,2.6491 1.9726,2.0123 4.0518,3.3658 6.0494,3.5483 3.4229,0.3083 3.5639,4.5224 -0.8465,4.1455zm-33.3955 -9.3706l0 0c-0.4007,1.663 -2.4655,6.4623 -7.7317,6.588l-0.1147 0c-2.4433,0.0392 -4.8337,-1.2076 -6.5938,-3.5018 -2.4749,1.6538 -4.8615,2.4506 -6.5743,2.1769 -3.7143,-0.5955 -4.8264,-3.6983 -5.1451,-5.7219 -2.128,2.6641 -4.9583,3.9302 -7.6802,4.192 0.9708,2.0074 1.4622,4.4198 1.4622,6.6388 0,3.4635 -1.8984,7.0053 -5.3348,7.0053 -4.8022,0 -7.6804,-7.1425 -8.0547,-14.0975 -0.8213,0.3223 -2.1762,0.5767 -2.8057,-0.8136 -0.7597,-1.6703 1.1242,-3.2122 2.7145,-4.1649 0.2777,-13.8598 6.0049,-23.6646 12.1978,-23.6646 2.0821,0 4.5901,1.3413 4.5901,5.3681 0,4.2199 -2.3648,9.6244 -6.1773,14.4487 -0.5186,0.6546 -1.7239,1.9358 -3.0644,3.2498 5.4136,4.0576 8.6965,-0.3149 10.0492,-2.9999 0.3006,-0.6706 0.5669,-1.3559 0.7981,-2.0535 0.7679,-2.3137 0.5471,-1.7732 1.2702,-4.0666 1.0318,-3.2681 2.7053,-3.1252 3.4622,-2.9965 2.6964,0.4742 1.0797,3.6372 0.4205,6.4183l-0.0303 0.0677c-1.0139,4.7397 -0.5419,8.5013 2.2533,9.0836 0.8928,0.1398 2.4327,-0.4128 4.0083,-1.599 -3.6852,-10.1055 1.9423,-22.0687 7.7676,-23.2217 1.9446,-0.3849 4.5012,0.3704 5.1461,4.0123 0.6684,3.821 -0.6752,9.1456 -3.4664,14.2153 -0.6302,1.1502 -2.4487,3.7379 -4.6029,5.7031 0.0131,0.0187 0.0224,0.0372 0.0211,0.0404 1.6322,2.2696 3.697,2.2146 3.697,2.2146 3.059,-0.0185 3.9806,-2.4995 4.3565,-3.5264 0.4338,-1.1778 1.3212,-1.5679 2.2614,-1.2522 1.0218,0.3467 1.0956,1.4576 0.9004,2.2574l0 -0.0003zm-21.6949 -21.0447l0 0c-1.2986,0 -2.3495,1.1081 -2.3495,2.4853 0,1.3715 1.0508,2.4844 2.3495,2.4844 1.2948,0 2.3418,-1.1129 2.3418,-2.484 0,-1.3776 -1.047,-2.4857 -2.3418,-2.4857zm26.435 15.6081l0 0c2.9944,0 4.156,-1.2387 4.156,-2.5121 0,-1.6358 -1.8512,-2.424 -4.1533,-2.4012 -2.3537,0.0258 -4.0269,0.9488 -4.0269,2.4228 0,1.2012 1.0298,2.4905 4.0242,2.4905zm-57.0134 0.0098l0 0c-3.0045,0 -4.0405,-1.2921 -4.0405,-2.5003 0,-1.4781 1.6774,-2.4052 4.0405,-2.4317 2.3148,-0.0229 4.1756,0.7663 4.1756,2.4101 0,1.2766 -1.1721,2.5219 -4.1756,2.5219zm-44.5742 -13.1352l0 0c1.3608,0 2.4684,1.1693 2.4684,2.6172 0,1.4417 -1.1076,2.6105 -2.4684,2.6105 -1.3659,0 -2.4707,-1.1688 -2.4707,-2.6105 0,-1.4479 1.1048,-2.6172 2.4707,-2.6172zm-51.6549 -36.4013l0 0 0 -0.0004c1.1311,-1.3959 3.3029,-1.3922 5.3385,0.4533 2.0349,1.8413 3.0384,4.7079 1.9128,6.1048 -1.1264,1.3962 -3.9532,0.7979 -5.9883,-1.0485 -2.0364,-1.8407 -2.3847,-4.1112 -1.263,-5.5092zm8.0558 -9.989l0 0c2.1875,-1.0595 4.9589,0.3821 6.5687,4.1008 1.6095,3.724 1.3463,8.0867 -0.843,9.1501 -2.1863,1.0563 -5.4724,-1.5793 -7.08,-5.302 -1.6108,-3.7223 -0.8334,-6.8864 1.3544,-7.9489zm16.6633 -4.6189l0 0c-2.9067,-0.6734 -5.8845,1.8326 -6.8917,6.7532 -1.0123,4.9186 0.397,10.0896 3.305,10.7566 2.9056,0.6697 6.217,-3.4124 7.2241,-8.3321 1.0102,-4.9196 -0.7286,-8.512 -3.6369,-9.1777l-0.0005 0zm20.9971 7.9998l0 0c2.2186,3.1684 1.0143,8.1029 -3.8374,11.9257 -4.8573,3.8232 -11.2226,4.8467 -13.4418,1.6856 -2.2189,-3.1693 0.5491,-9.3218 5.4022,-13.1441 4.8536,-3.8215 9.6578,-3.628 11.8771,-0.4672zm-23.4067 24.5029l0 0c-0.0547,2.5682 -3.0115,5.7024 -4.4235,3.2882 -0.7698,-1.8476 1.165,-5.2102 2.9564,-5.2669 1.4443,0 1.4786,1.3653 1.4671,1.9787z"/>
   </g>
  </g>
 </g>
</svg>
