<svg xmlns="http://www.w3.org/2000/svg" xmlns:xlink="http://www.w3.org/1999/xlink" version="1.1" width="168" height="107.921" viewBox="0 0 168 107.921">
<defs>
<clipPath id="clip_0">
<path transform="matrix(1,0,0,-1,0,107.921)" d="M0 107.921H168V0H0Z"/>
</clipPath>
<clipPath id="clip_1">
<path transform="matrix(1,0,0,-1,0,107.921)" d="M.06 107.894H165.486Z"/>
</clipPath>
<clipPath id="clip_2">
<path transform="matrix(1,0,0,-1,0,107.921)" d="M0 107.921H168V0H0Z"/>
</clipPath>
</defs>
<g id="layer_1" data-name="Layer 1">
<g clip-path="url(#clip_0)">
<path transform="matrix(1,0,0,-1,39.3472,70.922)" d="M0 0C-2.2 0-3.903-.879-5.322-2.764V3.607C-5.322 4.775-6.286 5.725-7.473 5.725-8.664 5.725-9.594 4.795-9.594 3.607V-16.146C-9.594-17.332-8.664-18.264-7.473-18.264-6.268-18.264-5.322-17.332-5.322-16.146V-8.105C-5.322-5.555-3.83-3.906-1.52-3.906 .771-3.906 2.085-5.412 2.085-8.041V-16.146C2.085-17.332 3.034-18.264 4.236-18.264 5.447-18.264 6.356-17.354 6.356-16.146V-6.816C6.356-2.611 3.925 0 0 0" fill="#231f20"/>
<path transform="matrix(1,0,0,-1,51.6982,65.1969)" d="M0 0C-1.427 0-2.421-.859-2.421-2.086V-2.283C-2.421-3.51-1.4-4.402 0-4.402 1.398-4.402 2.416-3.51 2.416-2.283V-2.086C2.416-.859 1.42 0 0 0" fill="#231f20"/>
<path transform="matrix(1,0,0,-1,51.6982,71.086)" d="M0 0C-1.189 0-2.12-.947-2.12-2.152V-15.981C-2.12-17.168-1.189-18.1 0-18.1 1.206-18.1 2.149-17.168 2.149-15.981V-2.152C2.149-.947 1.206 0 0 0" fill="#231f20"/>
<path transform="matrix(1,0,0,-1,59.8071,65.1412)" d="M0 0C-1.188 0-2.117-.93-2.117-2.119V-21.871C-2.117-23.061-1.188-23.99 0-23.99 1.205-23.99 2.153-23.061 2.153-21.871V-2.119C2.153-.951 1.184 0 0 0" fill="#231f20"/>
<path transform="matrix(1,0,0,-1,78.9858,80.0675)" d="M0 0V-.06C0-3.307-2.382-5.243-4.683-5.243-7.334-5.243-9.334-3.021-9.334-.06V0C-9.334 3.052-7.42 5.187-4.683 5.187-2.013 5.187 0 2.955 0 0M2.297 14.929C1.111 14.929 .179 13.997 .179 12.81V6.375C-1.377 8.277-3.289 9.201-5.645 9.201-9.737 9.201-13.882 6.039-13.882 0V-.063C-13.882-6.038-9.637-9.264-5.645-9.264-3.279-9.264-1.37-8.282 .179-6.262V-6.944C.179-8.135 1.124-9.063 2.332-9.063 3.52-9.063 4.448-8.135 4.448-6.944V12.81C4.448 13.997 3.506 14.929 2.297 14.929" fill="#231f20"/>
<path transform="matrix(1,0,0,-1,95.6152,70.99809)" d="M0 0C-1.576 0-3.238-1.33-4.271-3.367V-2.186C-4.271-.979-5.215-.031-6.422-.031-7.61-.031-8.542-.979-8.542-2.186V-16.014C-8.542-17.203-7.61-18.133-6.422-18.133-5.234-18.133-4.271-17.184-4.271-16.014V-10.854C-4.271-7.07-2.605-4.697 .418-4.17 1.449-3.979 2.119-3.174 2.119-2.119 2.119-.834 1.285 0 0 0" fill="#231f20"/>
<path transform="matrix(1,0,0,-1,107.4922,74.5177)" d="M0 0C2.211 0 3.76-1.57 4.068-4.113H-4.16C-3.77-1.611-2.152 0 0 0M.036 3.651C-4.906 3.651-8.634-.316-8.634-5.576V-5.646C-8.634-10.976-4.809-14.845 .465-14.845 2.991-14.845 5.078-14.076 6.846-12.492 7.207-12.131 7.414-11.646 7.414-11.172 7.414-10.172 6.678-9.418 5.693-9.418 5.189-9.418 4.896-9.566 4.58-9.813 3.361-10.816 2.036-11.302 .534-11.302-2.035-11.302-3.889-9.709-4.343-7.136H6.455C7.586-7.136 8.475-6.236 8.475-5.086 8.475-.851 5.516 3.651 .036 3.651" fill="#231f20"/>
<path transform="matrix(1,0,0,-1,128.2539,70.865299)" d="M0 0C-2.203 0-3.908-.879-5.328-2.762V-2.317C-5.328-1.11-6.271-.164-7.481-.164-8.67-.164-9.598-1.11-9.598-2.317V-16.146C-9.598-17.336-8.67-18.266-7.481-18.266-6.271-18.266-5.328-17.336-5.328-16.146V-8.106C-5.328-5.555-3.834-3.907-1.522-3.907 .766-3.907 2.08-5.414 2.08-8.041V-16.146C2.08-17.336 3.031-18.266 4.234-18.266 5.445-18.266 6.354-17.354 6.354-16.146V-6.815C6.354-2.61 3.916 0 0 0" fill="#231f20"/>
<path transform="matrix(1,0,0,-1,139.8066,65.129)" d="M0 0C-1.17 0-2.021-.838-2.021-1.99V-2.215C-2.021-3.273-1.232-3.955-.42-4.185-.4-5.336-1.027-6.143-2.254-6.516-2.709-6.656-2.977-6.969-2.977-7.379-2.977-7.934-2.602-8.277-1.991-8.277-1.121-8.277-.006-7.772 .727-7.039 1.662-6.105 2.134-4.699 2.134-2.861V-2.582C2.134-1.012 1.293 0 0 0" fill="#231f20"/>
<path transform="matrix(1,0,0,-1,150.1582,78.3829)" d="M0 0-.339 .106C-2.225 .711-3.843 1.229-3.843 2.354V2.422C-3.843 3.385-2.938 4.008-1.531 4.008-.393 4.008 1.004 3.6 2.514 2.83 2.791 2.688 3.006 2.617 3.361 2.617 4.368 2.617 5.155 3.389 5.155 4.373 5.155 5.068 4.78 5.664 4.125 6.014 2.368 6.94 .402 7.451-1.434 7.451-5.173 7.451-7.787 5.203-7.787 1.99V1.926C-7.787-1.479-4.918-2.576-2.234-3.334L-1.82-3.459C.006-4.014 1.577-4.488 1.577-5.65V-5.719C1.577-6.814 .614-7.469-1.002-7.469-2.609-7.469-4.324-6.895-5.966-5.801-6.162-5.688-6.484-5.553-6.895-5.553-7.875-5.553-8.646-6.32-8.646-7.307-8.646-7.957-8.33-8.535-7.826-8.81-5.88-10.146-3.43-10.916-1.105-10.916 2.982-10.916 5.516-8.756 5.516-5.289V-5.226C5.516-2.146 2.864-.894 0 0" fill="#231f20"/>
<path transform="matrix(1,0,0,-1,24.707,82.593898)" d="M0 0C-.483 0-.937-.176-1.289-.486-3.097-2.012-4.719-2.629-6.882-2.629-11.083-2.629-14.249 .771-14.249 5.285V5.35C-14.249 9.844-11.083 13.234-6.882 13.234-4.933 13.234-3.238 12.598-1.541 11.219-1.173 10.942-.742 10.803-.263 10.803 .923 10.803 1.851 11.717 1.851 12.881 1.851 13.551 1.547 14.17 1.02 14.576-1.308 16.367-3.733 17.168-6.851 17.168-13.605 17.168-18.699 12.06-18.699 5.285V5.221C-18.699-1.517-13.675-6.592-7.014-6.592-3.676-6.592-1.111-5.644 1.319-3.512 1.767-3.103 2.014-2.563 2.014-1.984 2.014-.908 1.089 0 0 0" fill="#231f20"/>
<path transform="matrix(1,0,0,-1,7.0308,95.7521)" d="M0 0C0 .465 .37 .836 .847 .836 1.311 .836 1.681 .465 1.681 0V-3.209H6.243V0C6.243 .465 6.61 .836 7.076 .836 7.553 .836 7.925 .465 7.925 0V-8.032C7.925-8.496 7.553-8.866 7.076-8.866 6.61-8.866 6.243-8.496 6.243-8.032V-4.768H1.681V-8.032C1.681-8.496 1.311-8.866 .847-8.866 .37-8.866 0-8.496 0-8.032V0" fill="#231f20"/>
<path transform="matrix(1,0,0,-1,22.1348,100.4356)" d="M0 0C-.109 1.064-.738 1.898-1.833 1.898-2.843 1.898-3.552 1.121-3.701 0ZM-1.639-4.275C-3.729-4.275-5.342-2.761-5.342-.531V-.507C-5.342 1.557-3.877 3.25-1.816 3.25 .477 3.25 1.611 1.364 1.611-.302 1.611-.765 1.255-1.093 .832-1.093H-3.686C-3.511-2.27-2.677-2.923-1.612-2.923-.915-2.923-.369-2.677 .096-2.295 .217-2.199 .327-2.143 .52-2.143 .886-2.143 1.173-2.433 1.173-2.814 1.173-3.018 1.078-3.197 .954-3.32 .3-3.906-.519-4.275-1.639-4.275" fill="#231f20"/>
<path transform="matrix(1,0,0,-1,30.04,101.9532)" d="M0 0V.494C-.423 .658-.981 .781-1.639 .781-2.704 .781-3.33 .33-3.33-.42V-.45C-3.33-1.146-2.716-1.543-1.924-1.543-.833-1.543 0-.915 0 0M-4.942-.518V-.491C-4.942 1.066-3.726 1.83-1.966 1.83-1.16 1.83-.587 1.709-.028 1.529V1.709C-.028 2.732-.653 3.277-1.814 3.277-2.444 3.277-2.962 3.17-3.414 2.992-3.51 2.964-3.592 2.951-3.673 2.951-4.057 2.951-4.368 3.25-4.368 3.632-4.368 3.936-4.164 4.193-3.92 4.289-3.234 4.547-2.54 4.711-1.599 4.711-.518 4.711 .288 4.423 .791 3.906 1.325 3.386 1.571 2.623 1.571 1.68V-1.87C1.571-2.318 1.215-2.665 .766-2.665 .288-2.665-.038-2.336-.038-1.965V-1.691C-.532-2.277-1.282-2.747-2.391-2.747-3.743-2.747-4.942-1.965-4.942-.518" fill="#231f20"/>
<path transform="matrix(1,0,0,-1,33.8218,95.326297)" d="M0 0C0 .451 .353 .816 .819 .816 1.283 .816 1.653 .451 1.653 0V-8.47C1.653-8.934 1.283-9.291 .819-9.291 .369-9.291 0-8.934 0-8.47V0" fill="#231f20"/>
<path transform="matrix(1,0,0,-1,38.1099,102.552799)" d="M0 0V3.797H-.276C-.669 3.797-.985 4.11-.985 4.506-.985 4.901-.669 5.217-.276 5.217H0V6.444C0 6.896 .367 7.266 .835 7.266 1.282 7.266 1.651 6.896 1.651 6.444V5.217H2.949C3.345 5.217 3.673 4.901 3.673 4.506 3.673 4.11 3.345 3.797 2.949 3.797H1.651V.258C1.651-.383 1.98-.644 2.539-.644 2.73-.644 2.896-.601 2.949-.601 3.317-.601 3.645-.9 3.645-1.285 3.645-1.584 3.44-1.83 3.207-1.924 2.854-2.049 2.513-2.117 2.074-2.117 .859-2.117 0-1.584 0 0" fill="#231f20"/>
<path transform="matrix(1,0,0,-1,43.624,95.326297)" d="M0 0C0 .451 .358 .816 .822 .816 1.286 .816 1.654 .451 1.654 0V-3.114C2.119-2.444 2.79-1.858 3.907-1.858 5.535-1.858 6.476-2.951 6.476-4.617V-8.47C6.476-8.934 6.121-9.291 5.655-9.291 5.191-9.291 4.822-8.934 4.822-8.47V-5.123C4.822-4.004 4.264-3.362 3.28-3.362 2.324-3.362 1.654-4.03 1.654-5.152V-8.47C1.654-8.934 1.286-9.291 .822-9.291 .371-9.291 0-8.934 0-8.47V0" fill="#231f20"/>
<path transform="matrix(1,0,0,-1,51.832,100.9835)" d="M0 0V.03C0 2.078 1.585 3.798 3.756 3.798 4.888 3.798 5.668 3.429 6.282 2.897 6.392 2.802 6.54 2.597 6.54 2.321 6.54 1.899 6.202 1.571 5.777 1.571 5.572 1.571 5.396 1.653 5.283 1.735 4.862 2.093 4.397 2.351 3.743 2.351 2.54 2.351 1.653 1.313 1.653 .056V.03C1.653-1.256 2.54-2.28 3.811-2.28 4.468-2.28 4.972-2.021 5.421-1.636 5.519-1.554 5.683-1.461 5.873-1.461 6.269-1.461 6.583-1.788 6.583-2.185 6.583-2.403 6.503-2.579 6.352-2.702 5.709-3.317 4.93-3.728 3.729-3.728 1.585-3.728 0-2.047 0 0" fill="#231f20"/>
<path transform="matrix(1,0,0,-1,64.6289,101.9532)" d="M0 0V.494C-.424 .658-.985 .781-1.64 .781-2.705 .781-3.335 .33-3.335-.42V-.45C-3.335-1.146-2.721-1.543-1.927-1.543-.834-1.543 0-.915 0 0M-4.945-.518V-.491C-4.945 1.066-3.728 1.83-1.969 1.83-1.161 1.83-.588 1.709-.029 1.529V1.709C-.029 2.732-.658 3.277-1.819 3.277-2.446 3.277-2.965 3.17-3.416 2.992-3.512 2.964-3.594 2.951-3.674 2.951-4.058 2.951-4.372 3.25-4.372 3.632-4.372 3.936-4.165 4.193-3.921 4.289-3.239 4.547-2.54 4.711-1.6 4.711-.521 4.711 .285 4.423 .79 3.906 1.324 3.386 1.57 2.623 1.57 1.68V-1.87C1.57-2.318 1.214-2.665 .766-2.665 .285-2.665-.042-2.336-.042-1.965V-1.691C-.534-2.277-1.286-2.747-2.393-2.747-3.745-2.747-4.945-1.965-4.945-.518" fill="#231f20"/>
<path transform="matrix(1,0,0,-1,68.312,98.086)" d="M0 0C0 .463 .357 .832 .822 .832 1.284 .832 1.653 .463 1.653 0V-.738C2.037 .164 2.746 .844 3.469 .844 3.987 .844 4.289 .504 4.289 .027 4.289-.41 4.001-.697 3.634-.768 2.457-.973 1.653-1.871 1.653-3.578V-5.711C1.653-6.162 1.284-6.532 .822-6.532 .37-6.532 0-6.174 0-5.711V0" fill="#231f20"/>
<path transform="matrix(1,0,0,-1,78.7881,100.4356)" d="M0 0C-.107 1.064-.738 1.898-1.831 1.898-2.841 1.898-3.551 1.121-3.702 0ZM-1.641-4.275C-3.727-4.275-5.34-2.761-5.34-.531V-.507C-5.34 1.557-3.878 3.25-1.816 3.25 .479 3.25 1.612 1.364 1.612-.302 1.612-.765 1.255-1.093 .832-1.093H-3.687C-3.512-2.27-2.678-2.923-1.612-2.923-.915-2.923-.37-2.677 .095-2.295 .217-2.199 .327-2.143 .517-2.143 .89-2.143 1.174-2.433 1.174-2.814 1.174-3.018 1.078-3.197 .955-3.32 .3-3.906-.521-4.275-1.641-4.275" fill="#231f20"/>
<path transform="matrix(1,0,0,-1,92.2637,100.9835)" d="M0 0V.03C0 1.298-.914 2.351-2.211 2.351-3.538 2.351-4.383 1.313-4.383 .056V.03C-4.383-1.226-3.467-2.28-2.186-2.28-.846-2.28 0-1.243 0 0M-6.035 0V.03C-6.035 2.093-4.396 3.798-2.186 3.798 .027 3.798 1.652 2.118 1.652 .056V.03C1.652-2.021 .017-3.728-2.211-3.728-4.411-3.728-6.035-2.047-6.035 0" fill="#231f20"/>
<path transform="matrix(1,0,0,-1,96.0996,98.756)" d="M0 0H-.284C-.67 0-.983 .301-.983 .685-.983 1.066-.67 1.379-.284 1.379H0V1.912C0 2.703 .207 3.307 .589 3.687 .972 4.068 1.502 4.262 2.211 4.262 2.539 4.262 2.816 4.232 3.048 4.191 3.347 4.15 3.619 3.881 3.619 3.51 3.619 3.129 3.306 2.813 2.923 2.826 2.826 2.842 2.691 2.854 2.58 2.854 1.953 2.854 1.625 2.514 1.625 1.76V1.367H2.91C3.306 1.367 3.605 1.066 3.605 .685 3.605 .301 3.293 0 2.91 0H1.652V-5.041C1.652-5.492 1.283-5.862 .818-5.862 .369-5.862 0-5.492 0-5.041V0" fill="#231f20"/>
<path transform="matrix(1,0,0,-1,111.7354,100.7501)" d="M0 0-1.679 3.865-3.36 0ZM-6.254-2.703-2.704 5.219C-2.515 5.64-2.17 5.9-1.694 5.9H-1.612C-1.134 5.9-.806 5.64-.616 5.219L2.937-2.703C3.005-2.828 3.032-2.952 3.032-3.059 3.032-3.51 2.688-3.868 2.239-3.868 1.845-3.868 1.569-3.633 1.419-3.276L.644-1.489H-4L-4.81-3.334C-4.944-3.674-5.229-3.868-5.586-3.868-6.022-3.868-6.362-3.521-6.362-3.088-6.362-2.965-6.325-2.842-6.254-2.703" fill="#231f20"/>
<path transform="matrix(1,0,0,-1,116.5527,102.552799)" d="M0 0V3.797H-.273C-.668 3.797-.982 4.11-.982 4.506-.982 4.901-.668 5.217-.273 5.217H0V6.444C0 6.896 .371 7.266 .834 7.266 1.285 7.266 1.652 6.896 1.652 6.444V5.217H2.951C3.349 5.217 3.674 4.901 3.674 4.506 3.674 4.11 3.349 3.797 2.951 3.797H1.652V.258C1.652-.383 1.982-.644 2.541-.644 2.732-.644 2.896-.601 2.951-.601 3.32-.601 3.648-.9 3.648-1.285 3.648-1.584 3.443-1.83 3.209-1.924 2.855-2.049 2.517-2.117 2.078-2.117 .863-2.117 0-1.584 0 0" fill="#231f20"/>
<path transform="matrix(1,0,0,-1,122.0586,95.326297)" d="M0 0C0 .451 .354 .816 .816 .816 1.281 .816 1.65 .451 1.65 0V-8.47C1.65-8.934 1.281-9.291 .816-9.291 .367-9.291 0-8.934 0-8.47V0" fill="#231f20"/>
<path transform="matrix(1,0,0,-1,130.5781,101.9532)" d="M0 0V.494C-.424 .658-.982 .781-1.641 .781-2.705 .781-3.334 .33-3.334-.42V-.45C-3.334-1.146-2.718-1.543-1.925-1.543-.832-1.543 0-.915 0 0M-4.945-.518V-.491C-4.945 1.066-3.729 1.83-1.966 1.83-1.162 1.83-.586 1.709-.029 1.529V1.709C-.029 2.732-.654 3.277-1.816 3.277-2.443 3.277-2.965 3.17-3.416 2.992-3.509 2.964-3.591 2.951-3.674 2.951-4.054 2.951-4.371 3.25-4.371 3.632-4.371 3.936-4.166 4.193-3.92 4.289-3.236 4.547-2.539 4.711-1.597 4.711-.52 4.711 .287 4.423 .791 3.906 1.323 3.386 1.571 2.623 1.571 1.68V-1.87C1.571-2.318 1.215-2.665 .766-2.665 .287-2.665-.041-2.336-.041-1.965V-1.691C-.531-2.277-1.287-2.747-2.391-2.747-3.744-2.747-4.945-1.965-4.945-.518" fill="#231f20"/>
<path transform="matrix(1,0,0,-1,134.2637,98.086)" d="M0 0C0 .463 .355 .832 .818 .832 1.283 .832 1.654 .463 1.654 0V-.356C2.115 .314 2.787 .9 3.904 .9 5.531 .9 6.475-.191 6.475-1.857V-5.711C6.475-6.174 6.119-6.532 5.656-6.532 5.189-6.532 4.822-6.174 4.822-5.711V-2.364C4.822-1.244 4.261-.604 3.277-.604 2.32-.604 1.654-1.271 1.654-2.393V-5.711C1.654-6.174 1.283-6.532 .818-6.532 .367-6.532 0-6.174 0-5.711V0" fill="#231f20"/>
<path transform="matrix(1,0,0,-1,143.209,102.552799)" d="M0 0V3.797H-.273C-.672 3.797-.984 4.11-.984 4.506-.984 4.901-.672 5.217-.273 5.217H0V6.444C0 6.896 .369 7.266 .832 7.266 1.283 7.266 1.653 6.896 1.653 6.444V5.217H2.947C3.346 5.217 3.672 4.901 3.672 4.506 3.672 4.11 3.346 3.797 2.947 3.797H1.653V.258C1.653-.383 1.981-.644 2.539-.644 2.731-.644 2.895-.601 2.947-.601 3.319-.601 3.645-.9 3.645-1.285 3.645-1.584 3.44-1.83 3.209-1.924 2.852-2.049 2.514-2.117 2.074-2.117 .86-2.117 0-1.584 0 0" fill="#231f20"/>
<path transform="matrix(1,0,0,-1,153.0781,101.9532)" d="M0 0V.494C-.422 .658-.98 .781-1.634 .781-2.701 .781-3.33 .33-3.33-.42V-.45C-3.33-1.146-2.715-1.543-1.924-1.543-.832-1.543 0-.915 0 0M-4.941-.518V-.491C-4.941 1.066-3.725 1.83-1.965 1.83-1.158 1.83-.586 1.709-.025 1.529V1.709C-.025 2.732-.652 3.277-1.813 3.277-2.443 3.277-2.961 3.17-3.412 2.992-3.508 2.964-3.591 2.951-3.672 2.951-4.052 2.951-4.367 3.25-4.367 3.632-4.367 3.936-4.164 4.193-3.918 4.289-3.234 4.547-2.539 4.711-1.595 4.711-.52 4.711 .291 4.423 .795 3.906 1.326 3.386 1.571 2.623 1.571 1.68V-1.87C1.571-2.318 1.217-2.665 .766-2.665 .291-2.665-.037-2.336-.037-1.965V-1.691C-.529-2.277-1.281-2.747-2.391-2.747-3.738-2.747-4.941-1.965-4.941-.518" fill="#231f20"/>
<path transform="matrix(1,0,0,-1,159.3242,73.8224)" d="M0 0C-.063 .045-.107 .123-.107 .213-.107 .359 .01 .477 .157 .477 .234 .477 .286 .453 .323 .427 .586 .213 .87 .097 1.217 .097 1.564 .097 1.786 .263 1.786 .498V.509C1.786 .736 1.657 .859 1.063 .996 .381 1.162-.004 1.363-.004 1.953V1.963C-.004 2.511 .454 2.892 1.088 2.892 1.493 2.892 1.816 2.785 2.105 2.595 2.17 2.556 2.227 2.479 2.227 2.369 2.227 2.224 2.107 2.109 1.963 2.109 1.909 2.109 1.861 2.121 1.816 2.15 1.57 2.311 1.332 2.393 1.082 2.393 .75 2.393 .559 2.224 .559 2.013V2.004C.559 1.757 .705 1.646 1.323 1.5 1.998 1.336 2.348 1.093 2.348 .563V.554C2.348-.047 1.877-.401 1.204-.401 .77-.401 .357-.266 0 0" fill="#231f20"/>
<path transform="matrix(1,0,0,-1,162.3359,71.2433)" d="M0 0C0 .154 .125 .283 .285 .283H.344C.467 .283 .551 .22 .606 .133L1.574-1.387 2.549 .138C2.609 .233 2.692 .283 2.805 .283H2.865C3.024 .283 3.149 .154 3.149 0V-2.682C3.149-2.836 3.024-2.959 2.865-2.959 2.715-2.959 2.586-2.832 2.586-2.682V-.76L1.803-1.934C1.742-2.026 1.67-2.082 1.567-2.082 1.465-2.082 1.393-2.026 1.332-1.934L.555-.769V-2.685C.555-2.842 .432-2.959 .276-2.959 .121-2.959 0-2.842 0-2.685V0" fill="#231f20"/>
<path transform="matrix(1,0,0,-1,83.7568,34.562097)" d="M0 0C-.035 .09-.19 .209-.271 .234-.349 .172-.466-.014-.554-.15-.628-.266-.711-.398-.797-.514-.835-.564-.875-.623-.921-.687-1.003-.807-1.108-.953-1.227-1.107-.855-1.26-.473-1.289-.079-1.193 .226-1.119 .451-.992 .615-.809 .337-.676 .134-.416 .011-.039L0 0" fill="#0081c4" fill-rule="evenodd"/>
<path transform="matrix(1,0,0,-1,71.5718,25.4981)" d="M0 0C3.128-2.859 6.723-6.144 6.756-6.175 6.776-6.193 7.095-6.499 7.485-6.878 7.808-6.216 8.259-5.552 8.733-5.042L8.757-5.017C8.873-4.904 9.207-4.58 9.687-4.115 7.172-1.789 1.416 3.52-.31 5.109V.282L0 0" fill="#0081c4" fill-rule="evenodd"/>
<path transform="matrix(1,0,0,-1,50.439,9.978096)" d="M0 0C-.168 0-.299-.09-.385-.262-.45-.393-.463-.621-.477-.863-.502-1.352-.531-1.905-1.021-1.957-1.551-2.014-1.884-1.505-2.153-1.101-2.214-1.007-2.273-.919-2.33-.845-2.373-.788-2.421-.723-2.471-.65-2.769-.234-3.221 .393-3.691 .393-3.708 .393-3.724 .393-3.738 .392-4.36 .324-4.761 .059-4.927-.396-5.291-1.4-4.458-3.094-3.443-4.149-2.84-4.728 3.818-11.073 6.663-13.783L7.461-14.545V-9.539C7.04-9.148 .692-3.239 .648-3.193 .591-3.141 .607-3.033 .729-2.716 .74-2.686 .747-2.666 .752-2.654 .945-2.02 .885-1.085 .608-.434 .505-.19 .237 0 0 0" fill="#0081c4" fill-rule="evenodd"/>
<path transform="matrix(1,0,0,-1,62.7988,52.964899)" d="M0 0C-1.959-1.004-3.423-1.217-4.309-1.217-5.258-1.217-6.06-.983-6.566-.559L-7.051-.145C-8.446-.475-9.319-.932-9.58-1.471-9.682-1.678-9.665-1.934-9.535-2.141-9.362-2.42-9.018-2.573-8.566-2.573H-.432C-.314-2.422 .318-1.524 0 0" fill="#009d57"/>
<path transform="matrix(1,0,0,-1,75.9829,54.436098)" d="M0 0C-.263 .539-1.133 .995-2.522 1.325L-3.016 .91C-3.523 .486-4.325 .254-5.271 .254-6.16 .254-7.624 .467-9.583 1.475-9.902-.051-9.27-.951-9.152-1.102H-1.014C-.563-1.102-.22-.949-.047-.67 .084-.463 .1-.207 0 0" fill="#009d57"/>
<path transform="matrix(1,0,0,-1,70.2891,28.187096)" d="M0 0V8.243H-.648C-2.122 7.192-3.851 6.636-5.649 6.636-7.447 6.636-9.176 7.192-10.649 8.243H-11.415L-11.421-.049-16.569-12.242-16.559-12.252C-16.517-12.289-16.473-12.33-16.43-12.367-15.114-13.525-12.941-14.439-10.312-14.941-8.824-15.225-7.257-15.367-5.649-15.367-4.107-15.367-2.602-15.236-1.174-14.977 1.592-14.473 3.85-13.527 5.191-12.311L0 0" fill="#ee3224"/>
<path transform="matrix(1,0,0,-1,66.7192,52.0328)" d="M0 0C1.841-.971 3.184-1.178 3.99-1.178 4.636-1.178 5.185-1.047 5.525-.816 5.117-.652 3.802 .018 3.79 1.754 3.783 2.762 3.791 6.293 3.806 8.176 3.343 8.065 2.948 7.98 2.57 7.91 1.502 7.717 .384 7.592-.757 7.537-.684 7.193-.599 6.791-.508 6.363-.101 4.467 .405 2.105 .366 1.627 .3 .781 .076 .184 0 0" fill="#0081c4"/>
<path transform="matrix(1,0,0,-1,63.2388,44.4918)" d="M0 0C-1.186 .061-2.345 .197-3.443 .406-3.804 .475-4.17 .557-4.562 .654-4.55-1.246-4.541-4.811-4.547-5.787-4.56-7.523-5.872-8.189-6.281-8.357-6.063-8.504-5.599-8.719-4.748-8.719-3.941-8.719-2.596-8.512-.754-7.541-.831-7.357-1.059-6.76-1.125-5.914-1.163-5.436-.658-3.08-.253-1.186-.16-.754-.072-.348 0 0" fill="#0081c4"/>
</g>
<g clip-path="url(#clip_1)">
<path transform="matrix(1,0,0,-1,77.7388,16.938096)" d="M0 0C.759 .443 1.284 1.056 1.739 2.036 1.461 1.988 1.092 2.012 .654 2.104 .113 2.219-.216 2.468-.48 2.972-.648 3.298-.748 3.589-.855 3.896-.893 4.003-.929 4.112-.972 4.228-1.166 4.758-1.32 5.309-1.471 5.841-1.591 6.269-1.715 6.71-1.859 7.138-2.482 8.984-3.182 11.063-4.191 12.848-4.442 13.364-4.744 13.843-5.092 14.269-5.258 14.474-5.429 14.664-5.61 14.847-6.605 15.923-8.068 16.74-9.254 16.887-10.096 16.989-11.016 16.936-11.757 16.737-12.889 16.434-13.696 15.873-14.295 14.975-14.303 14.964-14.317 14.944-14.334 14.916-13.98 14.946-13.653 14.962-13.341 14.962-7.877 14.962-3.432 11.229-3.432 6.641-3.432 6.637-3.432 6.548-3.446 6.402-2.748 5.819-2.349 4.974-2.349 4.074-2.349 2.545-3.484 1.258-4.997 1.064-5.087 .814-5.199 .554-5.345 .255-3.482-.899-1.68-.985 0 0" fill="#009d57"/>
</g>
<g clip-path="url(#clip_2)">
<path transform="matrix(1,0,0,-1,68.437,15.6949009)" d="M0 0C-.473-1.698-2.033-2.886-3.794-2.886-5.564-2.886-7.127-1.695-7.594 .012-7.628 .137-7.611 .268-7.547 .381-7.481 .494-7.379 .575-7.253 .609-6.994 .679-6.724 .521-6.653 .269-6.302-1.015-5.127-1.912-3.794-1.912-2.47-1.912-1.294-1.019-.937 .263-.88 .472-.687 .618-.469 .618-.425 .618-.381 .612-.337 .6-.078 .527 .073 .258 0 0M-6.369 4.163C-5.866 4.163-5.456 3.686-5.456 3.103-5.456 2.517-5.866 2.04-6.369 2.04-6.87 2.04-7.281 2.517-7.281 3.103-7.281 3.686-6.87 4.163-6.369 4.163M-1.227 4.163C-.723 4.163-.312 3.686-.312 3.103-.312 2.517-.723 2.04-1.227 2.04-1.728 2.04-2.138 2.517-2.138 3.103-2.138 3.686-1.728 4.163-1.227 4.163M5.601 4.011C5.36 3.348 4.987 2.806 4.485 2.398 4.225 2.186 3.847 2.136 3.54 2.274 3.224 2.416 3.02 2.719 3.006 3.064 2.98 3.688 2.69 5.045 1.77 5.728L1.746 5.746C1.706 5.775 1.665 5.806 1.629 5.827 1.533 5.878 1.429 5.915 1.312 5.938 1.203 5.961 1.08 5.972 .909 5.972 .831 5.972 .752 5.971 .673 5.968L.641 5.967C.535 5.963 .429 5.961 .297 5.961 .051 5.961-5.621 5.987-7.873 8.259-8.877 7.55-10.53 5.952-10.709 3.046-10.727 2.748-10.892 2.479-11.145 2.325-11.397 2.173-11.719 2.154-11.986 2.274-12.023 2.291-12.87 2.68-13.418 3.597-13.519 3.347-13.57 3.09-13.57 2.831-13.57 1.695-12.646 .771-11.512 .771-11.417 .771-11.328 .78-11.241 .789L-11.186 .796-11.17 .74C-10.262-2.569-7.231-4.882-3.798-4.882-.361-4.882 2.671-2.569 3.576 .74L3.592 .796 3.648 .789C3.746 .779 3.829 .771 3.916 .771 5.054 .771 5.979 1.695 5.979 2.831 5.979 3.254 5.849 3.659 5.601 4.011" fill="#0081c4" fill-rule="evenodd"/>
<path transform="matrix(1,0,0,-1,56.7612,12.4869)" d="M0 0C.336 4.56 3.968 6.291 4.004 6.309L4.062 6.334 4.091 6.279C4.112 6.239 4.13 6.206 4.13 6.206 5.55 3.778 11.904 3.727 11.969 3.727H11.995C12.094 3.727 12.192 3.73 12.292 3.733 12.39 3.735 12.487 3.737 12.585 3.737 12.825 3.737 13.011 3.722 13.187 3.685 13.394 3.643 13.589 3.572 13.769 3.477 13.856 3.426 13.941 3.364 14.027 3.301 15.175 2.448 15.579 .907 15.647 .033 16.563 .868 16.57 2.173 16.57 2.188 16.57 6.24 12.563 9.537 7.637 9.537 2.745 9.537-1.235 6.213-1.235 2.128-1.235 .805-.294 .169 0 0" fill="#009d57" fill-rule="evenodd"/>
<path transform="matrix(1,0,0,-1,108.1621,52.353097)" d="M0 0C-.189 .041-.386 .084-.576 .145-.918 .252-1.275 .318-1.621 .383-1.777 .412-1.934 .441-2.088 .475-2.14 .424-2.193 .381-2.248 .348-2.316 .307-3.965-.676-6.234-.676-7.332-.676-8.418-.436-9.465 .039-9.556-.383-9.662-.918-9.684-1.158-9.775-2.157-9.539-2.833-8.988-3.169L-1.261-3.159C-.345-3.137 .91-3.112 1.426-2.27 1.739-1.758 1.646-.926 1.23-.518 .891-.186 .459-.098 0 0" fill="#009d57"/>
<path transform="matrix(1,0,0,-1,96.3418,53.5108)" d="M0 0C-.02 .236-.123 .76-.221 1.203-1.271 .725-2.36 .482-3.463 .482-5.733 .482-7.381 1.465-7.451 1.506-7.506 1.539-7.555 1.578-7.606 1.631-7.757 1.598-7.908 1.57-8.058 1.543-8.405 1.477-8.765 1.41-9.106 1.303-9.296 1.242-9.494 1.199-9.685 1.158-10.143 1.061-10.574 .973-10.917 .641-11.333 .232-11.427-.602-11.114-1.112-10.595-1.954-9.338-1.979-8.421-2.001L-8.194-2.004-.692-2.01C-.144-1.674 .09-.995 0 0" fill="#009d57"/>
<path transform="matrix(1,0,0,-1,97.2314,21.532799)" d="M0 0C-2.179 0-4.261 .822-5.865 2.313L-10.884-2.622-6.349-6.66-6.354-6.695-7.654-15.179C-7.64-15.195-7.623-15.21-7.605-15.222-7.591-15.238-7.572-15.25-7.56-15.263-6.644-16.072-5.121-16.71-3.277-17.062-2.261-17.259-1.162-17.359-.019-17.359 1.084-17.359 2.137-17.265 3.112-17.085 4.894-16.763 7.144-15.464 7.547-15.228L6.338-7.019 6.312-6.666 6.339-6.644 10.61-2.835 5.821 2.276C4.22 .81 2.153 0 0 0" fill="#ee3224" fill-rule="evenodd"/>
<path transform="matrix(1,0,0,-1,100.5225,39.5802)" d="M0 0C-1.036-.189-2.149-.285-3.31-.285-4.515-.285-5.673-.18-6.753 .025-7.726 .213-8.618 .473-9.41 .807L-11.087-11.613C-10.845-11.752-9.472-12.475-7.644-12.475-6.472-12.475-5.343-12.182-4.29-11.602L-3.12-1.85-1.948-11.602C-.896-12.182 .231-12.475 1.405-12.475 3.231-12.475 4.606-11.752 4.847-11.613L3.132 1.121C1.922 .535 .866 .16 0 0" fill="#0081c4" fill-rule="evenodd"/>
<path transform="matrix(1,0,0,-1,106.9531,21.512795)" d="M0 0C3.073 2.929 7.278 6.936 7.746 7.387 8.762 8.441 9.594 10.135 9.23 11.137 9.066 11.594 8.664 11.859 8.041 11.927 8.025 11.929 8.01 11.929 7.994 11.929 7.523 11.929 7.075 11.302 6.778 10.885 6.725 10.813 6.676 10.747 6.635 10.69 6.578 10.616 6.52 10.529 6.457 10.438 6.189 10.033 5.857 9.525 5.326 9.578 4.834 9.631 4.805 10.185 4.782 10.674 4.768 10.915 4.758 11.143 4.689 11.273 4.604 11.445 4.473 11.535 4.305 11.535 4.066 11.535 3.801 11.345 3.696 11.102 3.418 10.444 3.36 9.51 3.553 8.88 3.557 8.867 3.566 8.843 3.578 8.811 3.682 8.533 3.719 8.399 3.655 8.34 3.614 8.301-1.334 3.679-2.701 2.401L-.238-.228 0 0" fill="#009d57" fill-rule="evenodd"/>
<path transform="matrix(1,0,0,-1,81.0151,31.209099)" d="M0 0C-.999-1.07-1.807-2.773-1.429-3.77-1.256-4.225-.852-4.484-.226-4.543H-.188C.281-4.543 .725-3.908 1.018-3.488 1.069-3.414 1.118-3.346 1.161-3.287 1.231-3.193 1.296-3.092 1.364-2.984 1.537-2.709 1.719-2.424 2.009-2.258 2.139-2.186 2.282-2.148 2.437-2.148 2.92-2.148 3.466-2.531 3.649-3.004 3.66-3.031 3.67-3.064 3.682-3.096 3.71-3.186 3.743-3.289 3.795-3.289 3.81-3.289 3.835-3.283 3.877-3.254 4.351-2.951 4.366-1.9 4.216-1.432 4.212-1.424 4.207-1.404 4.196-1.383 4.069-1.066 4.048-.951 4.104-.895 4.14-.859 6.774 1.672 8.284 3.123L5.645 5.47C2.146 2.086 .3 .295 0 0" fill="#009d57" fill-rule="evenodd"/>
<path transform="matrix(1,0,0,-1,102.6904,3.5640946)" d="M0 0C-1.396 1.023-3.015 1.238-4.124 1.238-4.216 1.238-4.308 1.237-4.397 1.233-5.597 1.196-6.897 .947-8.058 .532-9.743-.069-11.054-.932-11.851-1.959-12.509-2.806-12.921-3.845-13.043-4.965-13.087-5.364-13.13-5.824-13.108-6.248-12.834-6.224-12.54-6.197-12.224-6.169-10.612-6.024-8.405-5.828-5.356-5.626L-3.05-5.211C-.621-4.772 .632-4.465 2.017-3.703 1.752-2.115 1-.734 0 0" fill="#0081c4"/>
<path transform="matrix(1,0,0,-1,100.084,9.684196)" d="M0 0C.869-.234 2.412-.392 3.92-.392 5.092-.392 6.195-.299 7.113-.124 8.205 .084 9.844 .644 9.877 1.33 9.879 1.367 9.875 1.395 9.86 1.421 9.744 1.655 7.613 1.83 5.615 1.864 3.979 .869 2.684 .492 0 0" fill="#0081c4"/>
<path transform="matrix(1,0,0,-1,101.0264,15.673897)" d="M0 0C-.472-1.701-2.03-2.889-3.793-2.889-5.565-2.889-7.127-1.697-7.593 .01-7.663 .27-7.509 .537-7.251 .607-6.999 .678-6.724 .521-6.651 .267-6.304-1.019-5.127-1.916-3.793-1.916-2.468-1.916-1.294-1.021-.942 .259-.882 .469-.688 .616-.472 .616-.427 .616-.384 .609-.341 .599-.082 .527 .071 .259 0 0M-6.364 4.158C-5.864 4.158-5.456 3.683-5.456 3.099-5.456 2.515-5.864 2.04-6.364 2.04-6.87 2.04-7.278 2.515-7.278 3.099-7.278 3.683-6.87 4.158-6.364 4.158M-1.224 4.158C-.722 4.158-.313 3.683-.313 3.099-.313 2.515-.722 2.04-1.224 2.04-1.729 2.04-2.14 2.515-2.14 3.099-2.14 3.683-1.729 4.158-1.224 4.158M4.787 4.7C4.198 4.65 3.591 4.625 2.978 4.625 1.179 4.625-.634 4.836-1.526 5.15L-2.718 5.569C-6.239 5.349-8.784 5.121-10.468 4.971L-11.429 4.887C-11.472 4.883-11.521 4.883-11.548 4.889-12.686 4.866-13.572 3.963-13.572 2.831-13.572 1.692-12.646 .767-11.507 .767-11.414 .767-11.321 .776-11.243 .786L-11.185 .794-11.169 .738C-10.261-2.573-7.229-4.885-3.795-4.885-.362-4.885 2.669-2.573 3.575 .738L3.591 .794 3.649 .786C3.722 .777 3.819 .767 3.918 .767 5.056 .767 5.979 1.692 5.979 2.831 5.979 3.631 5.511 4.362 4.787 4.7" fill="#009d57" fill-rule="evenodd"/>
</g>
</g>
</svg>
