<?xml version="1.0" encoding="utf-8"?>
<!-- Generator: Adobe Illustrator 19.2.1, SVG Export Plug-In . SVG Version: 6.00 Build 0)  -->
<svg version="1.1" id="layer" xmlns="http://www.w3.org/2000/svg" xmlns:xlink="http://www.w3.org/1999/xlink" x="0px" y="0px"
	 viewBox="0 0 652 652" style="enable-background:new 0 0 652 652;" xml:space="preserve">
<style type="text/css">
	.st0{fill:#F8C368;}
	.st1{fill:#79BD28;}
	.st2{fill:#C42B05;}
</style>
<g>
	<g>
		<path class="st0" d="M502.8,149C457,100.4,395,72.6,328.3,70.7c-66.7-1.9-130.3,22.2-178.8,68.1C100.9,184.5,73,246.5,71.1,313.3
			c-4,137.8,104.9,253.1,242.6,257.1c137.8,4,253.1-104.8,257.1-242.6C572.8,261,548.7,197.5,502.8,149"/>
	</g>
	<g>
		<path d="M336.2,420.3c-1.7-2.2-4-3.3-6.9-3.3c-2.9,0-5.3,1-7.2,3.1c-1.9,2-2.9,4.7-2.9,8c0,3.3,0.9,5.9,2.8,7.9
			c1.9,2,4.5,2.9,7.9,2.9c0.8,0,2-0.2,3.4-0.5c1.4-0.3,2.4-0.7,3.1-1.3l0-5.1c-0.7,0.5-1.7,1-3,1.3c-1.3,0.3-2.4,0.5-3.5,0.5
			c-1.3,0-2.4-0.4-3.3-1.1c-0.9-0.8-1.5-1.9-1.8-3.6l14.1,0C338.8,425.4,338,422.5,336.2,420.3 M324.6,426.4
			c0.1-1.4,0.6-2.5,1.3-3.3c0.7-0.8,1.8-1.2,3.2-1.2c1.2,0,2.2,0.4,3,1.1c0.8,0.8,1.3,1.9,1.6,3.4L324.6,426.4z M302.9,430.6
			l-3.6-12.3l-4.4,0l-3.6,12.4l-4.4-13.3l-4.9,2.4l7.1,18.4l4.4,0l3.4-11l3.5,11l4.4,0l7.1-18.4l-4.6-2.4L302.9,430.6z M272.3,418.6
			c-1-1.2-2.5-1.8-4.3-1.8c-0.7,0-1.4,0.1-2,0.2c-0.7,0.2-1.3,0.5-2,0.9l-2.2,1.4l0-10.2l-5.2,0l0,28.7l5.2,0l0-13.6
			c0.5-0.4,1-0.9,1.6-1.3c0.6-0.4,1.4-0.6,2.3-0.6c1,0,1.7,0.3,2.2,0.8c0.5,0.6,0.7,1.2,0.7,2l0,12.6l5.3,0l0-14.4
			C273.9,421.4,273.4,419.8,272.3,418.6 M177,424c-1.1-1.1-2.7-1.9-4.8-2.3c-0.7-0.1-1.3-0.3-1.9-0.6c-0.6-0.3-1-0.8-1-1.5
			c0-0.4,0.2-0.7,0.6-0.9c0.4-0.2,1-0.3,1.8-0.2c1,0.1,1.9,0.3,2.7,0.6c0.9,0.3,1.7,0.7,2.6,1.2l-0.3-4.7c-0.7-0.3-1.6-0.6-2.5-0.9
			c-1-0.3-1.9-0.5-2.7-0.5c-1.9-0.2-3.4,0.2-4.6,1.1c-1.2,1-1.7,2.3-1.6,4c0.1,1.5,0.6,2.8,1.5,3.8c0.9,1,2.4,1.8,4.5,2.3
			c1.2,0.3,2.1,0.6,2.6,1c0.5,0.4,0.8,0.8,0.8,1.3c0.1,0.8-0.2,1.2-0.8,1.4c-0.6,0.2-1.3,0.2-2.2,0.1c-1.3-0.2-2.4-0.6-3.4-1
			c-1-0.5-1.9-1-2.6-1.6l0.3,4.5c1,0.7,2.1,1.2,3.3,1.7c1.3,0.4,2.4,0.7,3.3,0.9c2,0.3,3.6,0,4.9-1c1.3-1,1.9-2.5,1.7-4.5
			C178.8,426.6,178.2,425.2,177,424 M246,432c-0.6-1-0.9-2.1-0.9-3.6l0-7.2l2.8,0l0-3.7l-2.8,0l0-7.1l-5.4,0.4v6.6l-1.8,0l0,3.7h1.8
			l0,8.8c0,1.9,0.4,3.5,1.2,4.9c0.8,1.4,2,2.4,3.6,3.1l3.9-4C247.4,433.6,246.6,432.9,246,432 M194.9,415.2c-3-0.2-5.4,0.7-7.2,2.7
			c-1.8,2-2.6,4.5-2.5,7.5c0.1,3.2,1,5.8,2.7,7.7c1.7,1.9,4.1,2.8,7.3,2.8c2.9,0,5.1-0.9,6.7-2.7c1.6-1.8,2.4-4.2,2.4-7.2
			c0-3.1-0.8-5.6-2.5-7.6C200.2,416.5,197.8,415.4,194.9,415.2 M198.4,430.3c-0.6,0.9-1.7,1.4-3.1,1.3c-1.4,0-2.4-0.6-3.3-1.8
			c-0.8-1.2-1.3-2.6-1.3-4.3c0-1.8,0.3-3.3,0.9-4.4c0.7-1.1,1.8-1.6,3.3-1.5c1.4,0.1,2.4,0.7,3.2,2c0.8,1.3,1.1,2.6,1.2,4.2
			C199.3,427.9,199,429.4,198.4,430.3 M224.6,417l0,13c-0.4,0.4-0.9,0.8-1.5,1.2c-0.7,0.4-1.4,0.6-2.3,0.6c-1,0-1.7-0.3-2.2-0.8
			c-0.5-0.6-0.7-1.2-0.7-1.9l0-12.1l-5.2,0l0,13.4c0,2,0.5,3.6,1.6,4.8c1,1.2,2.4,1.8,4.3,1.8c0.8,0,1.5-0.1,2.1-0.3
			c0.6-0.2,1.3-0.5,1.9-0.8l2.2-1.3v2.3h5.2l0-19.7H224.6z M438.4,416.3c-0.4-0.1-0.8-0.1-1.4-0.1c-0.6,0-1.2,0.1-1.8,0.3
			c-0.7,0.2-1.2,0.5-1.8,0.8l-1.7,1.1l0-2l-5.3,0.5l-0.3,20.4l5.4-0.1l0.1-13.8c0.4-0.5,1-0.9,1.6-1.2c0.7-0.3,1.5-0.5,2.4-0.5
			c0.8,0,1.5,0.1,2.1,0.3c0.6,0.2,1.1,0.5,1.4,0.8l0-6.3C439,416.5,438.7,416.4,438.4,416.3 M481.6,428c-0.3-0.6-0.4-1.4-0.4-2.6
			l1.2-18.8l-5.1-0.1l-0.9,22.3c-0.1,1.5,0.3,2.6,0.9,3.4c0.7,0.7,1.6,1.2,2.7,1.5l3.2-4.3C482.4,429,481.9,428.5,481.6,428
			 M452.9,409l-5.7,0l-0.1,4.8l5.8-0.1V409z M467.5,430.2c-0.4-0.6-0.5-1.5-0.5-2.7l1.1-20.2l-6.1,0.3l-0.3,22.3
			c0,1.4,0.3,2.5,1.1,3.3c0.7,0.8,1.7,1.5,2.9,2l3.6-3.4C468.5,431.4,467.9,430.8,467.5,430.2 M447.1,416.2l-0.4,20.1l6.2-0.5
			l0-20.2L447.1,416.2z M377,432.3c-0.6-0.9-0.9-2.1-0.9-3.5l0-7l2.8,0l0-3.6l-2.8,0l0-6.9l-5.5,0.4l0,6.5l-1.8,0v3.6h1.8l0,8.6
			c0,1.9,0.4,3.5,1.2,4.8c0.8,1.3,2,2.3,3.7,3l3.9-3.9C378.4,434,377.6,433.3,377,432.3 M415.9,416.9l-3,1.2
			c-0.7-0.6-1.5-1.1-2.4-1.4c-0.9-0.3-1.8-0.5-2.6-0.5c-2.6,0-4.8,1-6.5,2.9c-1.7,2-2.6,4.5-2.6,7.5c0,3.3,0.7,5.9,2.2,7.8
			c1.5,1.9,3.6,2.9,6.3,2.9c0.4,0,0.8-0.1,1.3-0.2c0.5-0.1,0.9-0.3,1.2-0.5l1.9-1.4l0,1.4c0,1.4-0.5,2.3-1.4,2.9
			c-0.9,0.6-2.8,0.8-5.5,0.8l0,3.2l4.8,0c0.8-0.2,1.7-0.5,2.6-1c0.9-0.5,1.7-1,2.5-1.7c0.7-0.7,1.3-1.6,1.8-2.6
			c0.5-1,0.7-2.1,0.7-3.4l0-17.6L415.9,416.9z M410.5,432.1c-0.6,0.3-1.3,0.4-2,0.4c-1.4,0-2.5-0.6-3.2-1.8c-0.7-1.2-1-2.7-1-4.5
			c0-1.4,0.3-2.6,1-3.6c0.7-1.1,1.8-1.6,3.4-1.6c0.8,0,1.5,0.1,2,0.5c0.5,0.3,0.9,0.7,1.2,1.2l0,8.1
			C411.5,431.4,411.1,431.8,410.5,432.1 M354.6,425.1c-0.7,0-1.4-0.2-2.1-0.4c-0.7-0.2-1-0.8-1-1.5c0-0.4,0.2-0.8,0.7-1.1
			c0.5-0.3,1.1-0.5,2-0.5c1,0,2,0.1,2.9,0.3c0.9,0.2,1.8,0.6,2.7,1v-5.1c-0.7-0.3-1.6-0.5-2.7-0.7c-1.1-0.2-2-0.3-2.9-0.3
			c-2.1,0-3.8,0.6-5.3,1.9c-1.4,1.3-2.1,2.9-2.1,4.8c0,1.7,0.5,3.1,1.4,4.1c0.9,1,2.6,1.6,4.9,1.9c1.3,0.1,2.2,0.4,2.7,0.7
			c0.5,0.4,0.8,0.8,0.8,1.3c0,0.8-0.3,1.4-0.9,1.7c-0.6,0.3-1.5,0.5-2.4,0.5c-1.4,0-2.7-0.2-3.7-0.6c-1.1-0.4-2-0.8-2.9-1.4l0,5.1
			c1.1,0.6,2.3,1,3.7,1.2c1.4,0.2,2.6,0.3,3.6,0.3c2.1,0,3.9-0.7,5.3-2c1.4-1.3,2.1-3.1,2.1-5.3c0-1.8-0.6-3.2-1.7-4.3
			C358.5,425.8,356.8,425.2,354.6,425.1"/>
		<path class="st1" d="M337.6,308l-5.8-9.8l-22,5.9l-1.2,6.8l7.6,12.1c0,0,17.1-8.3,18.1-9.2C335.3,312.9,337.6,308,337.6,308
			 M435.4,229.4c0,0,0.9-0.7,1.8-2.3c-1.4-0.6-2.6-1.3-2.6-1.3s4.2-0.1,5.8-2c-3.7,0.3-4.9,0.3-4.9,0.3s-0.1-8.5,1.7-12.1
			c0.9-1.6,3.3-1.4,3.3-1.4s0.6-1.1-1.8-1.4c-2.4-0.3-5.1,5.9-5.5,12.5c-0.2,2.2-0.9,6-2.3,7.2c0.5,0,1.6-0.1,1.6-0.1l-2.4,3.3
			l0.7,0.4l3-3H435.4z"/>
		<path class="st2" d="M361.7,271.8l-1,11.2l-12.4-10.4l-21.9-6l-30.7,7.9l2.8,6l-10.2,9.5l7.6-22.1l6.9-37.8l-17.1,1.4l-47.6,37.8
			c0,0-19-28.1-19.6-28.9c-0.6-0.9-18.9-16.3-18.9-16.3l-28.5,1.3c-0.1,4-0.8,31.8-0.8,39.8c2.5,30.9,11.4,85.1,11.4,85.1l-4.7,1.3
			l3.4,28.9l27.4-0.9c0,0-5.5-30.5-6.9-44.9c-1.3-14.4-3.7-57.1-3.7-57.1l-3.1-1.7l-1.9-22.3l25.7,17.6c0,0-1.2,1.3-2.5,4
			c1.8,10.6,9.4,37.7,9.4,37.7l1.5-4.3c0,0,18.4-21.9,20.1-24c2.4-2.2,28.8-23,28.8-23l-5.1,20.3l-3.5,2.2l-17.8,49.2l-4.7,42.3
			l28.2,3.2l1.5-32.9l-4.2-1.6l11.1-32.4l9.1,29.3l12.7,10.4l30-2.9l-3.1-6.3l24.6-8.5l-4.3,5.2l-3,37.1l47,19.1l9.7-36.7l-18.4,0.6
			l-14.7-4.5l5-28l15.7,4.6l6.9-21.1l-18.9-1.6l3.9-26l7.9,1l-0.1,2.7l23.1,4.9l8.1-29.6l-54.4-8.4L361.7,271.8z M344.4,323.1
			l-30,15.7l-11.2-10.4l-8.5-15.8l2.7-18L338,283l14.8,24.5L344.4,323.1z M485.2,331.7c0,0-16.9-19.4-31-28.3c-0.6-0.3-1-0.9-1-0.9
			l-1.8-8.1l5.8-6.2l1.3,4.5c0,0,23.5-2.7,24.3-7c-0.7-5.5-5.2-20.3-5.2-20.3l-23.1,2.9c0,0-5.5,18.4-20.1,19.4l-3.6,18l14.1,12.2
			l2.1-1.6l13.8,15l5.7,16.5c0,0-0.4,2.6-1.7,3.7c-1.2,1.1-13.3,7-19,7.6c-0.9,0.1-2.7,1.3,0.7,3.9l-26.5,0.8c0,0,5.5,15.8,7,29.2
			c1.1,1,2.2,0.9,4.1,0.7c1.8-0.1,35-8.9,37.7-11.2c2.7-2.3,16.2-21.7,16.2-21.7L485.2,331.7z"/>
		<path d="M496.2,238.5L496.2,238.5c-4.9,0.4-6.8,4.7-6.6,8.4c0.2,3.1,1.6,5.9,3.9,7.7c1.7,1.3,3.6,2,5.4,1.7
			c2.7-0.4,4.8-1.6,5.9-3.7c1.5-2.7,1.1-6.4,0-8.4C502.4,239.6,498.7,238.3,496.2,238.5 M494.4,253.7c-2-1.6-3.2-4.1-3.4-6.8
			c-0.1-2.4,0.8-6.7,5.4-7.1h0c2-0.2,5.2,1,7.3,5.1c0.8,1.5,1.3,4.8,0,7.2c-0.9,1.7-2.6,2.7-4.9,3
			C497.4,255.3,495.8,254.8,494.4,253.7"/>
		<path d="M500.8,251l0-0.1c0-0.6,0.1-2.3-1.1-3.2c0.6-0.4,1.3-1.1,1.3-2.3c0-0.8-0.3-1.5-0.8-1.9c-1.5-1.2-4.4-0.7-4.5-0.7
			l-0.4,0.1l0.1,9.7l0.9,0c0,0-0.1-8.2-0.1-8.9c0.9-0.1,2.5-0.1,3.4,0.6c0.4,0.3,0.5,0.7,0.5,1.3c0,1.3-1.3,1.7-1.3,1.7l0,0.1
			c-0.6-0.2-1.4-0.2-2.5-0.2l0.1,0.9c1-0.1,1.8,0,2.3,0.1c1.3,0.4,1.4,1.8,1.3,2.8l0,0.1c0,1.3,0.6,1.6,0.6,1.6l1.2,0.1
			C501.7,252.7,500.7,251.8,500.8,251"/>
		<path d="M164.4,154.6c-44.3,41.8-69.7,98.4-71.5,159.3c-3.6,125.8,95.7,231,221.4,234.7c125.8,3.7,231-95.7,234.7-221.4
			c1.8-60.9-20.3-118.9-62.1-163.2c-41.8-44.3-98.4-69.7-159.3-71.5C266.7,90.7,208.7,112.8,164.4,154.6 M110.4,314.4
			c1.6-56.2,25.1-108.5,66-147.1c40.9-38.6,94.4-59,150.7-57.4c56.2,1.6,108.5,25.1,147.1,66c38.6,40.9,59,94.4,57.4,150.7
			C528.2,442.8,431,534.5,314.9,531.1C198.8,527.7,107.1,430.5,110.4,314.4"/>
	</g>
	<g>
		<path d="M297.4,294.6l-2.7,18l8.5,15.8l11.2,10.4l30-15.7l8.4-15.7L338,283L297.4,294.6z M334.3,313.8c-1,0.9-18.1,9.2-18.1,9.2
			l-7.6-12.1l1.2-6.8l22-5.9l5.8,9.8C337.6,308,335.3,312.9,334.3,313.8 M496.3,327.8c0,0-17.5-20.3-25.2-26.3
			c4.5-0.9,24.3-3.9,22.5-16.8l-8.1-30.6l-27,2.6c0,0,5.6-16.1-8.1-34.1c0-2.2,1.3-4.3,3.1-6.5c0,0-2.4-0.9-6.4-0.1
			c0.6-1.3,5.5-6.5,9.3-9.1c-1.9-0.9-17.8-5.8-17.8-5.8s-8.2-1-12.3,9.3c-3.3,8.4,0.4,11.2-3.6,13.2c-4.1,2-6.1,2.4-6.1,2.4l2.7,1.1
			c0,0-1.5,1.2-2.3,2.9c-0.7,1.7,0.3,1.9-1.2,3c-1.5,1.2-7.2,8.2-7.2,8.2s4.8-0.4,7.2-1.6c0,1.9,0.6,7.2,2.1,9.9
			c-1.5-0.4-58.6-9.2-58.6-9.2l-6.7,21.4l-26.4-6.8l-16.3,4.6c0,0,3.9-27.5,6.8-42c-0.7,0-35.6,2.7-35.6,2.7l-40.5,31.9l-12.9-19.7
			L204,213.1l-42.8,2.6c0,0-2.3,43-1.4,52.1c0.9,9.1,9.4,74.6,9.4,74.6l-3.4,1l5.4,48.3l51.1-0.6c0,0-13.9-83.7-16.6-113.5
			c0.9,0.4,4.9,2.6,4.9,2.6s9.9,44,11.7,50.9c1.3,6,1.8,7.8,1.8,7.8s7.2-18.6,10.8-25.9c7.2-7.3,20.7-19.8,20.7-19.8l-18,37.1
			c0,0-5.6,47.3-6.5,55.1c7.6,1.7,47.8,5.8,52.7,6.2c0-8.6,2-38.7,2-38.7l12.9,10.2l37.7-3.4l-1.8,22.9c0,0,57,24.6,67.4,28.1
			c0.9-3.9,9-36.2,9-36.2s3.6,8.3,5.7,20.7c2.8,17.3,28.9,6.5,37.4,4.3c8.5-2.2,22-8,22-8s15.7-21.7,19.3-26.9
			C496.3,358,496.3,327.8,496.3,327.8 M430.9,228.8c1.3-1.2,2.1-5,2.3-7.2c0.5-6.6,3.1-12.8,5.5-12.5c2.4,0.3,1.8,1.4,1.8,1.4
			s-2.4-0.1-3.3,1.4c-1.8,3.6-1.7,12.1-1.7,12.1s1.2,0,4.9-0.3c-1.6,1.9-5.8,2-5.8,2s1.2,0.7,2.5,1.3c-0.9,1.6-1.8,2.3-1.8,2.3
			l-1.5,0l-3,3l-0.7-0.4l2.4-3.3C432.5,228.7,431.3,228.8,430.9,228.8 M426.5,232l3.1,4.3l4.9-3.7l2.7-0.7l1.4-2.6l5.8-0.1
			c0,0,0.3-1.9,0.6-1.9c9.9,7.3,7.5,25,7,26.6c-0.5,1.6-1.4,1.7-1.4,1.7c-3.9,17.1-7.9,19.4-11.5,22.6c-4.4,3.9-8.5,2.3-8.5,2.3
			l2-2.7c-3.2-3.5-1.3-15.1-1.3-15.1l-2.5,0.4c0,0-0.3-6.2-2.1-11.8c-4.2-7.8-3.6-13.1-3.6-15.5C423.1,233.3,426.5,232,426.5,232
			 M393.7,395.4l-47-19.1l3-37.1l4.3-5.2l-24.6,8.5l3.1,6.3l-30,2.9l-12.7-10.4l-9.1-29.3l-11.1,32.4l4.2,1.6l-1.5,32.9l-28.2-3.2
			l4.7-42.3l17.8-49.2l3.4-2.2l5.1-20.3c0,0-26.4,20.8-28.8,23c-1.7,2.2-20.1,24-20.1,24l-1.5,4.3c0,0-7.6-27-9.4-37.7
			c1.3-2.7,2.5-4,2.5-4l-25.7-17.6l1.9,22.3l3.1,1.7c0,0,2.4,42.7,3.7,57.1c1.3,14.4,6.9,44.9,6.9,44.9l-27.4,0.9l-3.4-28.9l4.6-1.3
			c0,0-8.8-54.2-11.4-85.1c0-8.1,0.6-35.8,0.8-39.8l28.5-1.3c0,0,18.3,15.4,18.9,16.3c0.6,0.9,19.6,28.9,19.6,28.9l47.6-37.8
			l17.1-1.4l-6.9,37.8l-7.6,22.1l10.2-9.5l-2.8-6l30.7-7.9l21.9,6.1l12.4,10.4l1-11.2l5.8-18.6l54.4,8.4l-8.1,29.6l-23.1-4.9
			l0.2-2.7l-7.9-1l-3.9,26l18.9,1.6l-6.9,21.1l-15.7-4.6l-5,28l14.7,4.5l18.4-0.6L393.7,395.4z M416.3,353.4l1.6-6.6l-31.6,1.6
			l-3-0.9l1.1-6.8l14.1,4.6l12.1-38l-20.4-5.5l1.8-6.8c4.5,0.9,28.4,5,28.4,5l-2.5,9.5l24.6,20.6l1.6-0.7c0,0,4.9,4.9,6,6.5
			c1,1.6,3.1,8.9,3.1,8.9s-2.2,2.4-10,3.9c-7.8,1.4-6.6,4.2-6.6,4.2L416.3,353.4z M468.8,382.6c-2.7,2.3-35.9,11.1-37.7,11.2
			c-1.8,0.2-3,0.3-4-0.7c-1.5-13.4-7-29.2-7-29.2l26.5-0.8c-3.4-2.6-1.7-3.7-0.8-3.9c5.7-0.6,17.8-6.5,19-7.6
			c1.2-1.2,1.6-3.7,1.6-3.7l-5.7-16.5l-13.8-15l-2.1,1.6l-14.1-12.2l3.6-18c14.5-1,20.1-19.4,20.1-19.4l23.1-2.9
			c0,0,4.5,14.8,5.2,20.3c-0.7,4.3-24.3,7-24.3,7l-1.3-4.5l-5.8,6.2l1.8,8.1c0,0,0.4,0.6,1,0.9c14.1,8.9,31,28.3,31,28.3l-0.2,29.2
			C485,360.9,471.5,380.3,468.8,382.6"/>
	</g>
</g>
</svg>
