<?xml version="1.0" encoding="UTF-8" standalone="no"?>
<!-- Created with Inkscape (http://www.inkscape.org/) -->

<svg
   version="1.1"
   id="svg2"
   width="1440"
   height="2290.6667"
   viewBox="0 0 1440 2290.6667"
   sodipodi:docname="Mustard Seed Plant (1).ai"
   xmlns:inkscape="http://www.inkscape.org/namespaces/inkscape"
   xmlns:sodipodi="http://sodipodi.sourceforge.net/DTD/sodipodi-0.dtd"
   xmlns="http://www.w3.org/2000/svg"
   xmlns:svg="http://www.w3.org/2000/svg">
  <defs
     id="defs6">
    <clipPath
       clipPathUnits="userSpaceOnUse"
       id="clipPath16">
      <path
         d="M 0,1718 H 1080 V 0 H 0 Z"
         id="path14" />
    </clipPath>
  </defs>
  <sodipodi:namedview
     id="namedview4"
     pagecolor="#ffffff"
     bordercolor="#000000"
     borderopacity="0.25"
     inkscape:showpageshadow="2"
     inkscape:pageopacity="0.0"
     inkscape:pagecheckerboard="0"
     inkscape:deskcolor="#d1d1d1" />
  <g
     id="g8"
     inkscape:groupmode="layer"
     inkscape:label="Mustard Seed Plant (1)"
     transform="matrix(1.3333333,0,0,-1.3333333,0,2290.6667)">
    <g
       id="g10">
      <g
         id="g12"
         clip-path="url(#clipPath16)">
        <g
           id="g18"
           transform="translate(538.6711,1635.8859)">
          <path
             d="M 0,0 C 0.6,1.082 -0.078,3.932 -1.059,4.55 -2.144,5.234 -4.491,4.73 -5.876,3.98 -12.222,0.544 -14.128,-6.324 -9.985,-15.941 -6.109,-9.867 -2.811,-5.069 0,0"
             style="fill:#000000;fill-opacity:1;fill-rule:nonzero;stroke:none"
             id="path20" />
        </g>
        <g
           id="g22"
           transform="translate(637.9943,1331.4075)">
          <path
             d="M 0,0 C -12.402,-0.672 -19.672,11.409 -13.459,22.39 -12.575,12.704 -10.597,3.865 0,0 m -19.88,55.632 c -1.534,-3.607 -0.326,-8.382 -0.326,-12.058 -4.304,1.468 -9.514,4.127 -14.994,4.924 -9.741,1.416 -18.784,-0.944 -24.61,-9.683 -5.439,-8.157 -4.885,-16.857 0.153,-24.979 4.771,-7.691 12.494,-10.665 21.185,-11.04 6.681,-0.288 13.385,-0.057 21.357,-0.057 -2.48,-6.479 -4.866,-11.619 -6.435,-16.996 -7.469,-25.594 8.894,-45.869 34.548,-43.028 17.484,1.936 23.371,12.014 16.449,28.273 -1.738,4.082 -3.686,8.074 -5.719,12.502 12.873,0.38 23.753,3.172 32.239,11.856 4.842,4.956 7.004,11.003 4.447,17.834 -2.493,6.658 -8.119,9.002 -14.694,9.669 -11.455,1.16 -21.496,-2.151 -30.241,-9.581 -1.777,-1.51 -3.618,-2.944 -5.43,-4.412 -0.687,0.598 -1.375,1.197 -2.063,1.796 2.152,3.221 4.015,6.689 6.509,9.617 7.458,8.753 10.54,18.895 10.217,30.205 -0.269,9.399 -4.632,15.664 -13.913,16.872 -6.384,0.831 -13.459,0.005 -19.565,-2.047 -3.785,-1.273 -7.448,-5.752 -9.114,-9.667"
             style="fill:#000000;fill-opacity:1;fill-rule:nonzero;stroke:none"
             id="path24" />
        </g>
        <g
           id="g26"
           transform="translate(578.329,1458.8114)">
          <path
             d="M 0,0 C 4.848,16.064 15.031,25.959 29.583,31.923 21.597,38.485 11.765,36.896 3.332,28.711 -5.375,20.26 -7.196,8.87 0,0"
             style="fill:#000000;fill-opacity:1;fill-rule:nonzero;stroke:none"
             id="path28" />
        </g>
        <g
           id="g30"
           transform="translate(583.9644,1449.5389)">
          <path
             d="m 0,0 c -6.521,8.201 -12.594,5.003 -18.386,1.316 -4.61,-2.936 -3.731,-6.388 1.041,-7.574 4.75,-1.182 9.884,-0.818 14.964,-1.138 -1.829,-1.345 -3.978,-2.924 -6.028,-4.431 3.402,-14.683 11.672,-22.95 24.087,-23.91 6.629,-0.513 13.28,-0.275 16.288,7.29 2.718,6.837 -0.604,16.217 -5.883,19.62 6.368,2.941 13.799,5.358 20.056,9.538 6.66,4.45 9.519,11.697 7.038,19.811 C 50.655,28.774 44.545,33.083 36.058,34.174 27.36,35.292 19.634,33.046 12.923,27.467 4.641,20.582 -1.377,12.509 0,0"
             style="fill:#000000;fill-opacity:1;fill-rule:nonzero;stroke:none"
             id="path32" />
        </g>
        <g
           id="g34"
           transform="translate(697.9091,705.6205)">
          <path
             d="m 0,0 c -2.063,-6.323 -6.095,-10.62 -12.522,-11.25 -15.083,-1.479 -21.419,-10.466 -23.479,-24.471 -0.373,-2.534 -4.218,-6.421 -6.559,-6.493 -13.598,-0.419 -21.944,-7.151 -27.734,-19.054 -1.713,-3.523 -6.859,-7.81 -10.214,-7.631 -9.397,0.5 -12.532,-4.036 -13.675,-12.009 -0.827,-5.769 -2.201,-9.9 -9.898,-6.412 -5.634,2.552 -10.768,-1.228 -12.188,-7.307 -1.431,-6.129 2.8,-13.322 8.775,-14.42 6.226,-1.144 10.436,1.687 10.978,7.903 0.48,5.504 2.975,6.651 7.942,6.814 6.643,0.218 12.493,3.222 14.114,10.124 1.422,6.051 4.582,6.223 9.586,5.514 10.587,-1.502 14.69,1.819 16.867,12.598 0.972,4.816 2.642,7.831 8.939,6.555 9.936,-2.012 15.936,4.727 13.418,14.698 -1.347,5.334 0.212,7.52 5.315,8.898 9.098,2.457 15.817,7.579 17.142,17.817 0.182,1.401 1.079,3.525 2.122,3.871 8.051,2.667 9.566,10.202 13.145,16.399 3.07,5.316 7.247,10.011 11.114,14.837 2.007,2.506 4.402,4.701 6.622,7.037 -0.451,0.757 -0.902,1.514 -1.353,2.271 C 25.87,25.568 23.103,25.219 20.729,24.062 10.423,19.036 3.538,10.843 0,0"
             style="fill:#000000;fill-opacity:1;fill-rule:nonzero;stroke:none"
             id="path36" />
        </g>
        <g
           id="g38"
           transform="translate(565.6681,1552.3051)">
          <path
             d="m 0,0 c -2.945,1.51 -7.461,1.97 -10.421,0.763 -2.209,-0.902 -4.796,-5.87 -4.051,-7.807 1.005,-2.614 4.952,-5.487 7.809,-5.679 4.719,-0.317 9.576,1.421 15.992,2.586 C 4.995,-5.233 3.039,-1.558 0,0"
             style="fill:#000000;fill-opacity:1;fill-rule:nonzero;stroke:none"
             id="path40" />
        </g>
        <g
           id="g42"
           transform="translate(560.3544,1567.5276)">
          <path
             d="M 0,0 C 4.878,-1.615 10.145,-2.793 13.001,4.358 8.522,7.972 3.947,9.615 -0.838,5.739 -1.662,5.072 -0.889,0.294 0,0"
             style="fill:#000000;fill-opacity:1;fill-rule:nonzero;stroke:none"
             id="path44" />
        </g>
        <g
           id="g46"
           transform="translate(552.9681,1093.5363)">
          <path
             d="M 0,0 C 11.406,-5.155 22.521,-10.956 34.403,-16.8 17.387,-17.441 6.453,1.477 -13.536,-3.982 -5.78,-13.172 0.359,-21.504 7.571,-28.769 22.43,-43.737 34.662,-43.75 49.715,-29.031 c 6.983,6.828 14.69,10.208 24.453,9.23 4.099,-0.411 8.588,-1 12.339,0.219 4.92,1.598 9.411,4.717 13.79,7.627 0.913,0.607 0.535,3.16 0.752,4.816 -1.425,0.141 -3.065,0.812 -4.24,0.336 C 89.063,-9.947 81.959,-7.734 75.156,-4.226 65.961,0.515 57.297,6.483 47.751,10.276 41.935,12.586 33.003,14.638 28.77,11.827 18.461,4.98 8.561,3.852 -2.742,6.665 -4.914,7.206 -7.405,6.806 -9.695,6.472 c -8.953,-1.305 -15.649,-7.366 -18.004,-17.645 3.599,2.814 6.097,4.631 8.442,6.627 C -13.586,0.281 -7.224,3.265 0,0"
             style="fill:#000000;fill-opacity:1;fill-rule:nonzero;stroke:none"
             id="path48" />
        </g>
        <g
           id="g50"
           transform="translate(568.9387,588.8032)">
          <path
             d="m 0,0 c -8.015,-9.462 -16.484,-18.716 -23.164,-29.091 -8.929,-13.867 -16.521,-28.616 -24.211,-43.238 -1.082,-2.058 0.536,-5.539 0.904,-8.361 2.291,1.892 5.768,3.329 6.692,5.745 10.589,27.671 26.036,52.252 45.834,74.188 1.832,2.029 3.37,4.326 5.044,6.498 C 10.505,6.34 9.91,6.939 9.316,7.539 6.18,5.052 2.537,2.995 0,0"
             style="fill:#000000;fill-opacity:1;fill-rule:nonzero;stroke:none"
             id="path52" />
        </g>
        <g
           id="g54"
           transform="translate(595.5935,816.8143)">
          <path
             d="m 0,0 c -6.822,-4.099 -11.117,-9.86 -13.302,-17.447 -2.434,-8.454 -8.25,-13.28 -16.569,-15.91 -5.624,-1.778 -11.264,-4.075 -16.224,-7.208 -4.108,-2.594 -7.231,-6.751 -10.79,-10.215 0.676,-0.781 1.353,-1.562 2.029,-2.342 8.772,4.266 17.46,8.716 26.332,12.763 23.804,10.855 38.499,28.933 44.506,54.452 3.059,12.994 4.905,26.538 13.453,37.625 0.121,0.158 -0.394,0.807 -0.882,1.747 C 18.588,44.636 9.594,35.867 10.995,20.868 11.833,11.887 7.772,4.67 0,0"
             style="fill:#000000;fill-opacity:1;fill-rule:nonzero;stroke:none"
             id="path56" />
        </g>
        <g
           id="g58"
           transform="translate(572.1077,1142.4563)">
          <path
             d="m 0,0 c -0.458,0.678 -0.915,1.355 -1.373,2.033 -1.556,-0.549 -3.238,-0.877 -4.65,-1.681 -16.03,-9.133 -28.466,-22.203 -39.003,-37.04 -2.333,-3.284 -2.232,-8.3 -3.251,-12.519 l 2.519,-1.076 C -34.822,-29.593 -18.587,-13.726 0,0"
             style="fill:#000000;fill-opacity:1;fill-rule:nonzero;stroke:none"
             id="path60" />
        </g>
        <g
           id="g62"
           transform="translate(644.0425,1191.4637)">
          <path
             d="M 0,0 C 8.498,6.499 16.004,12.24 22.919,17.528 23.424,11.421 10.924,0.172 0,0 m -9.523,-5.841 c -3.554,6.003 -0.877,17.055 5.601,21.493 1.542,1.057 4.063,0.68 6.134,0.963 -0.226,-1.838 0.133,-4.052 -0.768,-5.456 -9.273,-14.447 -5.894,-21.203 11.342,-22.355 0.699,-0.047 1.374,-0.453 2.189,-0.736 -8.146,-4.08 -20.303,-0.993 -24.498,6.091 m 4.302,39.491 c 0.328,1.611 0.646,3.224 0.984,4.832 3.589,17.043 -5.396,31.747 -22.228,36.372 -8.723,2.396 -17.895,-0.537 -22.983,-7.35 -4.879,-6.533 -4.974,-14.388 0.125,-22.538 5.886,-9.409 14.344,-15.524 25.022,-18.527 2.991,-0.841 6.197,-1.192 8.946,-2.515 1.543,-0.743 3.062,-2.935 3.249,-4.623 0.129,-1.172 -2.009,-3.696 -3.17,-3.718 -4.757,-0.089 -9.792,-0.304 -14.248,1.073 -16.843,5.205 -31.917,0.323 -39.83,-13.569 -9.279,-16.294 -6.452,-34.442 7.13,-45.773 19.846,-16.556 50.166,-9.221 60.48,14.568 0.93,2.143 2.474,4.019 3.732,6.02 0.872,-0.181 1.743,-0.361 2.614,-0.542 0.207,-3.561 0.68,-7.131 0.578,-10.683 -0.653,-22.772 17.059,-38.208 39.402,-34.224 15.51,2.765 23.278,17.005 17.25,31.686 -4.147,10.101 -11.672,16.946 -21.186,21.849 -1.698,0.875 -3.367,1.805 -6.239,3.351 17.52,8.329 29.839,19.608 27.671,39.244 C 60.462,43.223 49.164,50.857 36.257,54.782 16.269,60.859 3.828,50.618 -5.221,33.65"
             style="fill:#000000;fill-opacity:1;fill-rule:nonzero;stroke:none"
             id="path64" />
        </g>
        <g
           id="g66"
           transform="translate(657.5057,734.0811)">
          <path
             d="m 0,0 c 2.279,5.49 8.181,9.52 12.586,14.057 1.786,1.84 4.024,3.242 6.056,4.843 C 9.059,20.333 3.157,15.787 -1.811,9.057 -14.119,-7.616 -28.73,-19.337 -51.535,-15.786 c -4.655,0.724 -10.697,-1.855 -14.845,-4.728 -7.201,-4.989 -14.431,-7.295 -23.195,-6.676 -20.378,1.439 -31.86,-7.624 -35.622,-29.483 2.691,2.239 5.493,4.357 8.051,6.739 9.368,8.722 19.966,14.748 33.054,15.39 11.107,0.545 22.226,0.878 33.328,1.511 C -27.599,-31.713 -9.529,-22.957 0,0"
             style="fill:#000000;fill-opacity:1;fill-rule:nonzero;stroke:none"
             id="path68" />
        </g>
        <g
           id="g70"
           transform="translate(511.2106,1616.1853)">
          <path
             d="M 0,0 C 4.841,8.579 3.362,14.822 -6.223,16.216 -6.977,16.326 -7.606,15.622 -7.41,14.886 -6.247,10.518 -5.173,4.482 -4.113,0.504 -2.119,0.259 -1.994,0.244 0,0"
             style="fill:#000000;fill-opacity:1;fill-rule:nonzero;stroke:none"
             id="path72" />
        </g>
        <g
           id="g74"
           transform="translate(643.2318,925.2502)">
          <path
             d="m 0,0 c 2.176,7.506 7.39,11.439 13.811,14.809 2.637,1.385 5.722,3.63 6.691,6.204 5.816,15.459 16.989,27.1 26.837,39.76 2.525,3.245 2.998,8.091 4.413,12.201 -4.268,-1.268 -9.496,-1.381 -12.643,-4 C 23.896,56.318 6.14,50.791 -13.009,48.785 -22.47,47.794 -28.615,43.546 -32.033,34.276 c -3.347,-9.077 -6.758,-10.341 -15.53,-6.844 -5.737,2.288 -10.287,1.06 -13.941,-3.256 -2.983,-3.525 -5.916,-7.389 -7.667,-11.604 -3.76,-9.056 -10.308,-14.422 -19.18,-18.03 -15.969,-6.492 -21.913,-15.753 -21.379,-33.046 0.1,-3.232 2.207,-6.401 3.388,-9.599 2.977,1.574 6.432,2.623 8.838,4.822 6.6,6.031 12.759,12.546 19.093,18.869 0.364,-0.392 0.728,-0.784 1.092,-1.177 -9.524,-11.048 -19.048,-22.096 -29.744,-34.504 3.7,-0.857 4.727,-1.411 5.636,-1.259 26.662,4.478 49.699,14.601 62.631,40.437 1.852,3.701 3.692,7.475 6.082,10.825 5.954,8.345 12.7,10.279 22.14,6.228 C -5.49,-6.043 -1.517,-5.232 0,0"
             style="fill:#000000;fill-opacity:1;fill-rule:nonzero;stroke:none"
             id="path76" />
        </g>
        <g
           id="g78"
           transform="translate(548.2286,1583.2087)">
          <path
             d="M 0,0 C 10.876,2.533 16.365,12.885 13.207,24.567 7.701,18.336 3.821,10.674 -1.989,4.657 c -10e-4,0 -0.078,0.063 -0.078,0.063 2.679,4.087 6.36,9.788 9.359,13.569 1.761,2.265 3.665,4.644 5.743,6.784 C 2.54,22.788 -5.105,16.99 -7.729,8.807 -8.481,6.463 -8.261,2.922 -6.916,1.079 -5.919,-0.286 -2.21,-0.515 0,0"
             style="fill:#000000;fill-opacity:1;fill-rule:nonzero;stroke:none"
             id="path80" />
        </g>
        <g
           id="g82"
           transform="translate(393.1433,1102.4734)">
          <path
             d="M 0,0 C 10.209,-3.311 21.466,-11.775 27.511,5.372 28.237,4.78 28.964,4.188 29.69,3.597 27.651,-0.273 26.32,-4.817 23.418,-7.862 18.307,-13.224 11.35,-13.931 4.961,-10.553 2.098,-9.04 0.53,-5.073 -1.626,-2.219 -1.084,-1.479 -0.542,-0.74 0,0 m -31.032,-18.329 c 6.917,0.42 13.752,2.249 20.613,3.508 2.537,0.466 5.109,1.766 7.54,1.505 2.486,-0.266 4.817,-1.978 7.216,-3.057 -1.493,-1.908 -2.603,-4.776 -4.546,-5.551 -6.94,-2.765 -14.048,-5.316 -21.313,-6.991 -6.053,-1.395 -8.814,-4.766 -9.627,-10.516 -1.968,-13.916 7.835,-29.176 22.782,-35.374 13.343,-5.533 29.479,-1.401 37.902,9.705 7.676,10.121 7.319,17.852 -0.095,27.796 -3.058,4.103 -4.571,9.36 -6.786,14.092 1.08,0.635 2.161,1.269 3.241,1.904 3.489,-4.244 6.917,-8.539 10.478,-12.721 9.348,-10.979 24.534,-13.683 36.518,-6.475 7.737,4.654 10.596,11.843 9.762,20.517 -0.824,8.558 -5.679,14.207 -13.623,17.29 -7.168,2.782 -14.057,2.209 -21.103,-0.882 -4.621,-2.027 -9.653,-4.787 -16.697,0.325 4.55,1.228 7.333,1.964 10.107,2.731 14.677,4.059 23.394,13.954 26.665,28.48 C 70.59,39.444 66.564,48.988 57.166,55.971 43.815,65.892 22.228,63.118 9.526,50.09 -1.176,39.111 -1.242,33.695 8.656,22.286 c 3.015,-3.475 5.347,-7.544 7.991,-11.342 -0.763,-0.529 -1.527,-1.058 -2.29,-1.587 -1.809,2.339 -3.658,4.649 -5.421,7.022 -8.174,11.006 -18.904,18.44 -32.052,22 -12.302,3.331 -23.355,0.471 -31.57,-9.502 -7.823,-9.497 -8.434,-20.468 -3.383,-31.449 5.235,-11.382 14.804,-16.501 27.037,-15.757"
             style="fill:#000000;fill-opacity:1;fill-rule:nonzero;stroke:none"
             id="path84" />
        </g>
        <g
           id="g86"
           transform="translate(437.9615,1497.459)">
          <path
             d="M 0,0 C 7.92,-3.221 16.784,-5.148 25.328,-5.535 31.125,-5.797 34.865,-3.467 36.23,0.346 24.482,5.535 11.648,10.44 -1.552,10.991 -8.268,6.241 -8.064,3.28 0,0"
             style="fill:#000000;fill-opacity:1;fill-rule:nonzero;stroke:none"
             id="path88" />
        </g>
        <g
           id="g90"
           transform="translate(475.5751,1562.0323)">
          <path
             d="M 0,0 C 0.665,1.471 -0.392,4.486 -1.681,5.947 -7.366,12.393 -12.04,12.029 -19.974,3.796 -14.827,1.33 -10.299,-1.271 -5.446,-2.9 -4.01,-3.382 -0.705,-1.558 0,0"
             style="fill:#000000;fill-opacity:1;fill-rule:nonzero;stroke:none"
             id="path92" />
        </g>
        <g
           id="g94"
           transform="translate(474.6505,1499.7893)">
          <path
             d="M 0,0 C 0.353,2.582 -0.162,5.63 -1.66,8.924 -6.84,20.313 -23.489,25.528 -34.327,19.205 -38.128,16.987 -40.356,14.42 -37.562,10.623 -24.36,9.945 -11.646,5.13 0,0"
             style="fill:#000000;fill-opacity:1;fill-rule:nonzero;stroke:none"
             id="path96" />
        </g>
        <g
           id="g98"
           transform="translate(432.194,1394.8042)">
          <path
             d="M 0,0 C 5.871,-9.486 13.087,-7.138 20.892,-1.391 18.473,-9.841 11.404,-13.866 4.833,-11.668 -0.422,-9.911 -2.196,-6.088 0,0 m -14.76,3.541 c 2.254,0.207 4.729,-2.014 7.102,-3.121 -2.042,-1.514 -3.878,-3.811 -6.16,-4.413 -13.376,-3.533 -18.303,-13.263 -12.672,-25.752 3.542,-7.857 12.893,-12.081 22.272,-10.061 8.351,1.798 11.065,5.802 11.437,16.564 0.072,2.078 0.602,4.14 0.92,6.21 l 1.952,0.547 c 1.874,-11.218 3.579,-22.749 18.422,-22.026 6.59,0.321 11.299,4.032 13.079,10.418 2.943,10.558 -3.81,15.886 -13.346,20.354 4.995,1.91 8.635,3.132 12.135,4.674 7.745,3.413 11.186,9.8 11.36,17.941 C 51.895,22.043 46.359,29.528 39.136,32.01 30.435,35 23.438,31.32 17.282,25.53 15.16,23.535 13.488,21.06 12.731,20.152 c -7.33,5.901 -13.237,12.24 -20.476,16.03 -7.014,3.672 -14.959,1.762 -20.705,-4.276 -5.12,-5.381 -4.174,-11.887 -1.764,-18.262 2.69,-7.112 7.348,-10.845 15.454,-10.103"
             style="fill:#000000;fill-opacity:1;fill-rule:nonzero;stroke:none"
             id="path100" />
        </g>
        <g
           id="g102"
           transform="translate(840.9665,191.7731)">
          <path
             d="m 0,0 c -2.327,9.067 -6.022,18.406 -11.471,25.913 -10.23,14.095 -16.146,29.202 -18.332,46.386 -0.683,5.368 -5.087,10.224 -7.59,15.409 -1.946,4.029 -3.521,8.235 -5.376,12.31 -2.495,5.478 -3.743,12.636 -7.969,15.958 -6.66,5.237 -15.095,8.624 -23.241,11.47 -17.553,6.134 -35.527,11.064 -53.074,17.216 -8.557,3 -14.559,9.478 -18.444,17.982 -1.553,3.399 -4.022,7.241 -7.131,8.914 -11.838,6.37 -20.006,15.882 -27.187,26.991 -5.881,9.097 -12.97,10.472 -22.073,4.778 -8.925,-5.584 -17.586,-6.477 -27.318,-2.748 -12.651,4.848 -23.433,0.899 -32.328,-8.593 -1.827,-1.95 -2.278,-5.191 -3.363,-7.837 2.845,0.411 6.015,0.149 8.48,1.346 13.56,6.583 27.604,8.424 42.363,5.511 27.506,-5.429 45.594,-23.105 59.859,-45.852 14.545,-23.194 25.812,-48.712 47.276,-67.026 0.158,-0.135 -0.194,-0.871 -0.964,-3.943 -8.506,9.316 -17.018,16.87 -23.33,25.956 -10.036,14.448 -18.369,30.067 -27.846,44.92 -15.552,24.374 -37.388,39.095 -66.565,41.822 -4.535,0.424 -9.144,0.06 -14.107,0.06 7.359,-9.105 13.778,-16.301 19.288,-24.138 3.408,-4.846 6.395,-7.123 11.976,-3.612 6.36,3.999 10.983,0.923 14.153,-4.584 1.617,-2.811 2.475,-6.27 2.877,-9.534 1.649,-13.367 2.773,-26.8 4.532,-40.15 0.95,-7.211 3.889,-13.616 11.549,-16.155 10.315,-3.421 13.605,-11.135 13.392,-21.143 -0.083,-3.89 -0.419,-7.785 -0.291,-11.666 0.424,-12.743 8.433,-22.118 20.894,-24.435 4.069,-0.757 8.208,-1.271 12.338,-1.537 8.554,-0.551 15.438,-4.09 20.519,-10.983 9.268,-12.573 21.374,-15.938 36.365,-12.469 16.077,3.72 30.564,-0.636 43.786,-10.312 4.531,-3.315 9.502,-6.554 14.778,-8.212 C -3.91,-15.024 2.494,-9.721 0,0"
             style="fill:#000000;fill-opacity:1;fill-rule:nonzero;stroke:none"
             id="path104" />
        </g>
        <g
           id="g106"
           transform="translate(350.894,751.8401)">
          <path
             d="m 0,0 c 5.499,-1.835 11.423,-4.127 15.565,-7.94 8.573,-7.891 15.414,-17.718 24.22,-25.288 8.204,-7.054 17.347,-14.391 27.354,-17.547 8.625,-2.721 14.529,-6.378 18.955,-13.635 0.519,-0.851 1.361,-1.918 2.208,-2.082 3.058,-0.591 7.146,-2.187 9.017,-0.846 1.975,1.414 3.491,6.798 2.334,8.609 -2.896,4.533 -7.252,8.212 -11.367,11.842 -1.638,1.445 -4.362,1.577 -6.287,2.79 -8.788,5.537 -16.851,13.992 -26.359,16.137 -9.897,2.233 -15.765,7.967 -22.504,13.683 -2.315,1.963 -5.219,3.925 -6.286,6.531 -2.665,6.508 -7.555,9.802 -13.887,11.162 -14.205,3.052 -25.363,11.292 -36.044,20.47 -1.658,1.425 -3.402,2.749 -5.107,4.119 -0.466,-0.545 -0.932,-1.091 -1.398,-1.636 C -23.009,14.005 -13.86,4.626 0,0"
             style="fill:#000000;fill-opacity:1;fill-rule:nonzero;stroke:none"
             id="path108" />
        </g>
        <g
           id="g110"
           transform="translate(597.4026,404.7004)">
          <path
             d="m 0,0 c 15.397,5.952 31.171,11.561 47.279,14.918 50.137,10.45 84.945,35.649 92.574,89.852 2.518,17.885 9.97,33.579 24.143,45.804 7.926,6.837 9.504,16.427 7.211,26.461 -1.152,5.044 -2.317,10.219 -4.466,14.877 -8.958,19.417 -8.252,38.515 0.025,57.995 5.199,12.237 8.579,25.102 6.723,38.674 -1.873,13.691 -0.367,26.419 9.545,37.048 0.863,0.926 1.912,2.218 1.893,3.322 -0.052,2.903 0.337,6.799 -1.303,8.409 -1.602,1.573 -6.075,1.935 -8.248,0.813 -3.509,-1.811 -6.865,-4.821 -9.025,-8.145 -3.508,-5.402 -6.727,-11.22 -8.786,-17.297 C 150.42,291.641 137.839,274.685 120.352,261.16 103.943,248.47 94.591,231.743 91.769,211.208 89.141,192.088 81.722,175.272 66.977,162.343 48.011,145.713 42.755,124.865 46.109,100.479 49.328,77.072 49.194,53.88 33.615,33.599 64.597,47.3 83.597,99.3 101.597,155.3 86.597,97.3 68.093,61.116 61.116,51.838 48.556,35.136 30.398,25.724 11.855,17.577 -22.106,2.655 -44.298,-22.289 -55.199,-57.651 c -1.354,-4.393 -3.615,-8.604 -6.067,-12.515 -1.04,-1.66 -3.959,-3.513 -5.478,-3.127 -1.636,0.416 -3.499,3.238 -3.757,5.208 -0.975,7.442 -2.4,15.057 -1.755,22.44 3.704,42.388 -0.518,84.527 -3.193,126.723 -0.153,2.411 -0.623,4.802 -0.946,7.202 -0.673,0.133 -1.346,0.266 -2.019,0.399 -2.114,-3.998 -4.228,-7.996 -6.983,-13.205 -5.416,7.218 -3.347,13.471 -2.341,19.677 3.726,22.983 8.615,45.867 10.7,69.003 2.231,24.767 1.867,49.773 2.409,74.68 0.001,0.033 0.003,0.065 0.004,0.097 -2.512,-2.518 -5.851,-4.185 -9.357,-4.81 6.51,2.412 9.362,19.601 10.696,31.751 0.181,2.332 0.349,4.678 0.485,7.037 1.362,23.598 2.823,47.244 3.032,70.868 -0.441,-1.23 -0.84,-2.479 -1.226,-3.717 -1.103,-3.538 -2.206,-7.075 -3.309,-10.613 -0.619,-1.985 -0.95,-4.039 -1.086,-6.113 0.51,10.634 2.031,21.22 4.534,31.568 0.233,0.964 0.489,1.951 1.063,2.759 -0.579,52.738 -2.077,105.475 -3.913,158.187 -1.454,41.739 -4.096,83.435 -6.037,125.159 -0.408,8.776 -0.06,17.587 -0.06,26.685 -2.295,-0.642 -4.181,-1.171 -7.976,-2.233 1.968,6.391 3.47,11.217 4.938,16.054 1.12,3.689 2.913,7.342 3.175,11.097 1.603,23.032 1.639,46.245 4.556,69.096 3.076,24.092 -0.271,48.621 11.54,72.255 17.079,34.178 38.617,63.068 71.845,82.51 1.928,1.129 3.56,2.766 5.329,4.167 -0.602,0.769 -1.204,1.537 -1.807,2.306 C -6.456,912.58 -23.091,899.931 -37.146,884.122 -51.4,868.088 -64.2,850.99 -70.584,829.838 c 0.624,13.119 1.248,26.239 1.873,39.358 -0.786,0.128 -1.572,0.256 -2.357,0.384 -1.987,-4.422 -5.253,-8.708 -5.737,-13.289 -2.036,-19.305 -3.153,-38.706 -4.773,-58.058 -2.921,-34.904 -5.542,-69.84 -9.055,-104.685 -4.568,-45.308 -2.207,-90.055 8.402,-134.364 0.571,-2.381 0.9,-6.76 -0.112,-7.26 -5.632,-2.782 -3.513,-7.571 -3.547,-11.541 -0.226,-26.73 -0.219,-53.462 -0.294,-80.194 -0.033,-11.745 -2.765,-23.817 4.439,-34.677 0.778,-1.173 0.678,-2.929 1.167,-5.292 -2.022,2.733 -3.493,4.721 -4.964,6.708 -0.769,-0.099 -1.538,-0.199 -2.307,-0.299 0,-7.367 0.134,-14.736 -0.021,-22.099 -1.652,-78.339 -3.041,-156.686 -5.3,-235.008 -0.445,-15.426 -2.406,-31.357 -7.068,-45.967 -5.332,-16.707 -5.562,-31.856 2.15,-47.372 1.123,-2.261 1.552,-4.868 2.302,-7.315 -0.794,-0.309 -1.588,-0.617 -2.382,-0.925 -1.267,2.554 -2.649,5.059 -3.78,7.672 -3.691,8.532 -6.24,17.766 -11.132,25.528 -12.179,19.321 -28.912,24.968 -49.547,15.717 -17.039,-7.639 -33.303,-8.448 -50.291,-1.315 -17.035,7.152 -32.815,4.983 -47.534,-6.281 -4.741,-3.628 -10.058,-6.504 -15.112,-9.723 15.979,18.651 35.615,26.145 60.117,21.892 15.419,-2.676 31.277,-3.295 46.965,-3.654 4.964,-0.114 10.015,3.592 16.278,6.039 -2.751,2.407 -3.585,3.752 -4.655,3.979 -15.453,3.285 -27.242,13.373 -40.334,21.151 -7.902,4.694 -16.513,9.124 -25.376,11.072 -18.947,4.164 -35.669,-3.398 -51.263,-13.388 -20.715,-13.27 -41.016,-27.197 -61.901,-40.186 -16.265,-10.117 -33.417,-18.804 -49.672,-28.935 -11.85,-7.386 -20.932,-17.78 -26.181,-30.995 -0.977,-2.462 -0.756,-5.4 -1.088,-8.119 2.657,0.083 5.369,-0.151 7.96,0.307 9.669,1.707 19.227,4.476 28.957,5.303 16.516,1.403 33.166,1.186 49.697,2.462 26.665,2.06 51.83,7.821 69.514,30.739 12.305,15.947 17.819,16.894 35.642,7.556 17.754,-9.302 26.344,-8.097 41,5.765 1.696,1.603 3.318,3.287 5.048,4.852 18.983,17.161 42.505,15.138 58.181,-5.204 11.117,-14.426 14.35,-31.472 14.831,-49.084 3.191,-116.743 6.204,-233.49 9.361,-350.234 0.111,-4.097 0.111,-8.76 2.029,-12.079 1.756,-3.041 6.056,-6.55 9.208,-6.525 19.475,0.154 34.911,19.796 31.298,38.789 -3.484,18.314 -7.082,36.609 -10.302,54.97 -12.363,70.497 1.932,137.215 28.936,202.077 C -25.155,-17.115 -14.867,-5.747 0,0"
             style="fill:#000000;fill-opacity:1;fill-rule:nonzero;stroke:none"
             id="path112" />
        </g>
        <g
           id="g114"
           transform="translate(274.5104,783.8251)">
          <path
             d="m 0,0 c 1.079,-11.043 4.631,-20.434 11.786,-28.83 1.618,-1.899 2.039,-5.368 1.943,-8.076 -0.23,-6.497 2.558,-10.961 7.996,-13.981 7.293,-4.05 11.565,-9.998 12.769,-18.387 0.71,-4.951 3.342,-9.267 8.96,-9.062 8.199,0.3 11.067,-4.404 11.982,-11.275 0.845,-6.342 4.75,-9.598 9.928,-12.872 4.464,-2.823 8.524,-7.248 11.064,-11.895 2.688,-4.92 5.2,-8.7 11.119,-9.446 5.668,-0.714 9.476,-3.652 10.586,-9.688 1.045,-5.682 4.541,-8.486 10.496,-7.941 6.054,0.555 9.5,-2.284 11.655,-7.992 1.038,-2.751 4.007,-6.709 6.156,-6.743 6.783,-0.109 11.811,-2.441 16.45,-7.183 1.163,-1.188 5.479,-1.198 6.555,-0.057 1.273,1.349 1.528,5.057 0.546,6.791 -1.281,2.263 -4.189,3.618 -6.431,5.319 -3.277,2.486 -6.868,4.634 -9.824,7.453 -7.98,7.608 -15.677,15.512 -23.539,23.244 -0.901,0.887 -2.078,1.923 -3.227,2.063 -13.905,1.694 -23.555,9.349 -30.42,21.175 -0.731,1.259 -2.505,1.863 -3.511,3.019 -2.173,2.497 -4.006,5.3 -6.263,7.71 -3.054,3.26 -5.899,7.185 -9.696,9.169 -5.554,2.901 -8.342,6.827 -10.368,12.646 -1.681,4.826 -4.775,10.08 -8.802,12.962 -7.121,5.096 -10.371,11.545 -12.641,19.632 -1.529,5.449 -4.367,11.608 -8.587,14.987 C 9.196,-11.264 5.614,-4.398 4.168,4.917 2.507,15.62 -0.852,26.058 -3.473,36.611 -4.252,36.457 -5.032,36.304 -5.811,36.15 -5.882,34.723 -6.236,33.243 -5.979,31.877 -3.977,21.246 -1.047,10.717 0,0"
             style="fill:#000000;fill-opacity:1;fill-rule:nonzero;stroke:none"
             id="path116" />
        </g>
        <g
           id="g118"
           transform="translate(425.8908,1266.0002)">
          <path
             d="m 0,0 c 10.119,-19.491 44.703,-24.735 60.168,-9.081 -1.568,5.014 -3.916,6.858 -9.642,4.522 -5.915,-2.413 -10.364,0.35 -12.5,8.605 2.372,-1.173 3.188,-1.813 4.091,-1.981 3.534,-0.657 7.095,-1.163 10.646,-1.726 0.422,2.762 1.007,5.511 1.236,8.29 0.739,8.973 0.427,18.148 2.235,26.889 2.335,11.288 3.061,11.161 -6.774,17.099 -2.211,1.335 -4.455,3.262 -6.842,3.536 -6.723,0.77 -13.87,2.281 -20.218,0.795 C 14,54.982 10.231,45.882 11.47,36.291 12.569,27.787 17.745,24.467 25.769,24.168 28.235,24.076 30.675,23.298 33.128,22.834 26.062,21.255 19.295,21.928 12.712,21.109 0.707,19.613 -4.995,9.62 0,0"
             style="fill:#000000;fill-opacity:1;fill-rule:nonzero;stroke:none"
             id="path120" />
        </g>
        <g
           id="g122"
           transform="translate(508.1838,1231.9404)">
          <path
             d="m 0,0 c 0.758,-7.521 1.515,-15.042 2.273,-22.563 1.228,0.109 2.455,0.218 3.682,0.327 C 5.334,-14.72 4.713,-7.204 4.092,0.312 2.728,0.208 1.364,0.104 0,0"
             style="fill:#000000;fill-opacity:1;fill-rule:nonzero;stroke:none"
             id="path124" />
        </g>
        <g
           id="g126"
           transform="translate(498.0494,627.3229)">
          <path
             d="m 0,0 c -0.08,2.94 0.867,6.455 -0.403,8.73 -9.877,17.692 -24.316,31.456 -39.518,44.467 -0.886,0.758 -2.59,0.558 -3.913,0.805 -0.335,-0.468 -0.669,-0.936 -1.004,-1.404 1.754,-1.978 3.619,-3.869 5.246,-5.947 C -28.78,32.839 -18.107,18.917 -7.151,5.221 -5.372,2.996 -2.414,1.716 0,0"
             style="fill:#000000;fill-opacity:1;fill-rule:nonzero;stroke:none"
             id="path128" />
        </g>
        <g
           id="g130"
           transform="translate(430.2576,615.5599)">
          <path
             d="m 0,0 c 0.739,-2.104 1.013,-4.56 2.291,-6.257 9.473,-12.577 20.254,-24.323 28.42,-37.681 7.073,-11.573 11.161,-24.96 16.81,-37.436 0.822,-1.815 2.987,-3.021 4.53,-4.508 1.169,1.384 2.338,2.768 3.088,3.656 -0.723,2.905 -1.047,4.702 -1.617,6.418 C 44.019,-47.191 27.681,-22.873 6.537,-1.675 5.171,-0.304 2.216,-0.521 0,0"
             style="fill:#000000;fill-opacity:1;fill-rule:nonzero;stroke:none"
             id="path132" />
        </g>
        <g
           id="g134"
           transform="translate(516.2238,1315.1543)">
          <path
             d="m 0,0 c -5.937,7.807 -13.517,8.326 -20.397,1.395 -13.459,-13.56 -15.311,-40.678 -3.812,-55.845 2.31,0.634 4.621,1.268 9.385,2.575 -2.262,-4.802 -3.314,-7.769 -4.968,-10.351 -1.851,-2.889 -6.19,-5.374 -2.403,-9.101 3.271,-3.22 7.233,-6.787 11.445,-7.739 5.487,-1.24 8.531,3.555 6.304,8.984 -1.536,3.744 -4.038,7.092 -6.295,10.934 1.27,1.08 2.592,2.255 3.966,3.364 C 10.794,-41.611 13.669,-17.976 0,0"
             style="fill:#000000;fill-opacity:1;fill-rule:nonzero;stroke:none"
             id="path136" />
        </g>
        <g
           id="g138"
           transform="translate(506.6375,971.5837)">
          <path
             d="m 0,0 c -0.375,2.992 -0.382,6.087 -1.181,8.962 -8.061,28.989 -27.428,49.414 -50.941,66.538 -2.007,1.463 -5.202,1.291 -7.845,1.879 -0.484,-0.845 -0.967,-1.69 -1.451,-2.535 C -34.126,55.469 -14.706,30.003 -3.071,-1.486 -2.047,-0.991 -1.024,-0.496 0,0"
             style="fill:#000000;fill-opacity:1;fill-rule:nonzero;stroke:none"
             id="path140" />
        </g>
        <g
           id="g142"
           transform="translate(487.5387,1537.0092)">
          <path
             d="m 0,0 c -0.132,0.116 -0.264,0.233 -0.398,0.35 -3.145,2.77 -7.805,2.955 -11.158,0.441 v 0 c -1.467,-1.101 -1.651,-3.233 -0.394,-4.57 2.016,-2.142 4.026,-4.317 6.34,-4.714 1.638,-0.281 3.747,2.188 5.817,4.429 C 1.292,-2.89 1.2,-1.057 0,0"
             style="fill:#000000;fill-opacity:1;fill-rule:nonzero;stroke:none"
             id="path144" />
        </g>
        <g
           id="g146"
           transform="translate(482.2708,1560.043)">
          <path
             d="m 0,0 c -0.548,-0.697 -1.096,-1.394 -1.643,-2.091 1.119,-0.887 2.277,-1.728 3.351,-2.667 9.529,-8.336 19.265,-16.456 28.42,-25.186 2.618,-2.496 3.543,-6.772 5.244,-10.233 -0.665,-0.294 -1.329,-0.588 -1.993,-0.882 -9.182,5.26 -18.364,10.519 -27.546,15.779 7.8,-7.328 16.576,-12.899 25.106,-18.824 1.93,-1.341 4.22,-3.878 4.279,-5.923 0.383,-13.334 0.197,-26.684 0.197,-42.359 -10.48,9.673 -19.218,17.738 -27.865,25.719 -1.09,2.335 -2.428,4.554 -4.001,6.597 -1.497,1.945 -3.84,3.909 -6.141,3.055 -1.559,-2.887 -2.934,-5.872 -4.115,-8.933 -0.111,-0.286 -0.18,-0.518 -0.18,-0.825 0,-0.687 -0.111,-1.58 0.352,-2.088 1.611,-1.773 4.476,-1.21 6.765,-0.506 1.518,0.466 3.036,0.933 4.554,1.399 1.849,-1.681 3.71,-3.349 5.53,-5.06 5.656,-5.314 11.381,-10.559 16.912,-16.001 5.816,-5.724 8.134,-12.461 8.056,-20.957 -0.278,-30.069 0.271,-60.145 0.468,-90.219 0.011,-1.667 -0.332,-3.335 -0.634,-6.152 -11.139,11.734 -23.457,19.213 -38.793,21.029 6.104,-3.204 12.411,-6.076 18.271,-9.677 15.117,-9.288 27.872,-20.125 23.228,-40.79 -0.167,-0.745 -0.296,-1.64 -0.043,-2.315 1.489,-3.958 3.097,-7.873 4.664,-11.802 0.867,0.26 1.735,0.521 2.602,0.781 0,4.014 0.198,8.039 -0.032,12.04 -1.796,31.327 -3.155,62.694 -5.794,93.951 -1.001,11.853 4.383,17.945 13.696,22.294 4.174,1.949 8.746,3.065 13.176,4.431 2.703,0.833 5.48,1.42 8.224,2.118 -0.377,1.12 -0.754,2.239 -1.131,3.358 -11.146,-4.02 -22.291,-8.04 -34.023,-12.271 -0.129,1.831 -0.428,4.307 -0.459,6.787 -0.345,27.725 -0.773,55.45 -0.775,83.175 0,2.775 1.939,6.629 4.202,8.12 6.49,4.276 13.61,7.595 20.482,11.29 -0.239,0.564 -0.479,1.128 -0.718,1.692 C 53.727,-16 45.562,-19.853 35.842,-24.439 45.265,-10.001 55.725,1.338 69.271,9.836 55.362,5.952 48.025,-6.077 37.016,-17.121 39.241,-1.806 46.966,8.242 53.034,19.418 49.009,14.433 44.984,9.448 40.729,4.179 v 46.876 c -1.506,-2.189 -2.529,-4.526 -3.22,-6.975 -0.809,1.822 -1.976,3.524 -3.237,5.077 -1.072,1.321 -2.311,2.648 -3.523,3.842 -0.474,-0.321 -0.96,-0.435 -1.521,-0.319 0.861,-1.443 1.721,-2.885 2.582,-4.328 1.354,-2.271 2.716,-4.557 3.645,-7.033 0.442,-1.177 0.778,-2.406 0.964,-3.65 -0.347,-4.665 0.066,-9.628 0.559,-14.747 C 37.963,12.693 36.362,2.215 35.896,-8.154 31.868,0.157 29.867,8.461 26.932,16.42 24.019,24.319 20.165,31.87 16.723,39.574 16.062,39.283 15.401,38.993 14.74,38.703 24.231,17.526 32.333,-4.027 34.137,-28.235 22.141,-18.313 11.07,-9.156 0,0"
             style="fill:#000000;fill-opacity:1;fill-rule:nonzero;stroke:none"
             id="path148" />
        </g>
        <g
           id="g150"
           transform="translate(495.4485,1606.9691)">
          <path
             d="m 0,0 c -3.168,5.632 -5.263,9.857 -7.89,13.718 -0.777,1.142 -3.35,2.071 -4.564,1.628 -1.292,-0.473 -2.463,-2.581 -2.793,-4.162 C -16.52,5.089 -11.554,0.802 0,0"
             style="fill:#000000;fill-opacity:1;fill-rule:nonzero;stroke:none"
             id="path152" />
        </g>
        <g
           id="g154"
           transform="translate(493.7874,857.377)">
          <path
             d="m 0,0 c -9.172,9.274 -23.417,9.991 -32.858,19.643 -2.814,2.877 -7.095,4.427 -9.162,8.925 -4.825,10.501 -9.327,12.043 -18.948,8.211 -3.505,1.763 -6.926,4.988 -9.084,4.292 -7.091,-2.287 -11.718,-0.015 -16.245,5.134 -1.529,1.738 -4.679,1.954 -6.911,3.186 -4.673,2.577 -9.558,4.944 -13.735,8.196 -3.793,2.953 -6.763,6.964 -10.095,10.509 4.091,-14.575 10.147,-28.12 24.075,-35.262 11.424,-5.857 23.539,-10.594 35.745,-14.617 9.152,-3.016 16.742,-7.159 23.17,-14.569 3.645,-4.202 9.259,-7.591 14.628,-9.191 8.706,-2.595 17.94,-3.418 28.22,-5.211 C 5.633,-6.844 3.103,-3.138 0,0"
             style="fill:#000000;fill-opacity:1;fill-rule:nonzero;stroke:none"
             id="path156" />
        </g>
        <g
           id="g158"
           transform="translate(393.7728,1108.7695)">
          <path
             d="m 0,0 c 1.758,-0.009 3.68,-0.811 5.467,-1.582 0.375,-0.161 0.76,-0.329 1.066,-0.567 0.385,-0.299 0.595,-0.669 0.79,-1.022 0.838,-1.516 3.091,-7.194 -0.844,-3.645 C 5.121,-5.591 4.305,-4.709 2.613,-3.672 1.32,-2.881 -1.993,-0.855 0,0"
             style="fill:#ffffff;fill-opacity:1;fill-rule:nonzero;stroke:none"
             id="path160" />
        </g>
        <g
           id="g162"
           transform="translate(400.0041,1112.1219)">
          <path
             d="M 0,0 C 1.743,-0.23 3.548,-1.267 5.224,-2.257 5.576,-2.465 5.937,-2.68 6.211,-2.954 6.555,-3.299 6.717,-3.692 6.866,-4.068 7.506,-5.676 9.027,-11.593 5.569,-7.577 4.377,-6.191 3.678,-5.213 2.13,-3.972 0.947,-3.025 -2.084,-0.597 0,0"
             style="fill:#ffffff;fill-opacity:1;fill-rule:nonzero;stroke:none"
             id="path164" />
        </g>
        <g
           id="g166"
           transform="translate(409.4579,1121.9927)">
          <path
             d="m 0,0 c 2.271,-2.143 4.053,-5.486 5.689,-8.627 0.343,-0.659 0.694,-1.338 0.88,-2.009 0.235,-0.845 0.18,-1.567 0.12,-2.251 -0.255,-2.931 -4.147,-9.106 -4.32,-3.582 -0.14,4.477 0.451,5.115 -0.827,8.476 C 0.567,-5.426 -3.34,1.335 0,0"
             style="fill:#ffffff;fill-opacity:1;fill-rule:nonzero;stroke:none"
             id="path168" />
        </g>
        <g
           id="g170"
           transform="translate(650.876,1205.8254)">
          <path
             d="m 0,0 c 0.257,-1.739 -0.246,-3.76 -0.738,-5.643 -0.103,-0.395 -0.211,-0.801 -0.4,-1.14 -0.237,-0.425 -0.571,-0.689 -0.891,-0.935 -1.372,-1.057 -6.644,-4.142 -3.73,0.285 1.005,1.526 1.755,2.466 2.523,4.296 C -2.649,-1.74 -1.146,1.841 0,0"
             style="fill:#ffffff;fill-opacity:1;fill-rule:nonzero;stroke:none"
             id="path172" />
        </g>
        <g
           id="g174"
           transform="translate(647.3863,1188.6814)">
          <path
             d="M 0,0 C 1.428,1.026 3.453,1.507 5.352,1.934 5.751,2.023 6.161,2.114 6.548,2.102 7.036,2.086 7.423,1.91 7.789,1.739 9.357,1.005 14.518,-2.264 9.247,-1.706 7.429,-1.514 6.251,-1.279 4.272,-1.435 2.762,-1.555 -1.11,-1.863 0,0"
             style="fill:#ffffff;fill-opacity:1;fill-rule:nonzero;stroke:none"
             id="path176" />
        </g>
        <g
           id="g178"
           transform="translate(462.0618,1281.2139)">
          <path
             d="m 0,0 c 1.428,-0.011 3.26,-1.055 4.973,-2.06 0.36,-0.211 0.73,-0.429 1.059,-0.739 0.415,-0.389 0.712,-0.872 0.992,-1.333 1.199,-1.976 4.975,-9.381 0.567,-4.753 C 6.07,-7.29 5.106,-6.139 3.378,-4.788 2.059,-3.757 -1.321,-1.116 0,0"
             style="fill:#ffffff;fill-opacity:1;fill-rule:nonzero;stroke:none"
             id="path180" />
        </g>
        <g
           id="g182"
           transform="translate(469.2462,1287.3754)">
          <path
             d="M 0,0 C -0.292,-1.905 0.073,-4.567 0.435,-7.061 0.51,-7.584 0.59,-8.123 0.743,-8.627 0.935,-9.261 1.219,-9.758 1.491,-10.228 2.657,-12.24 7.176,-18.826 4.782,-11.98 3.956,-9.619 3.333,-8.092 2.726,-5.507 2.263,-3.533 1.077,1.527 0,0"
             style="fill:#ffffff;fill-opacity:1;fill-rule:nonzero;stroke:none"
             id="path184" />
        </g>
        <g
           id="g186"
           transform="translate(431.6523,1404.875)">
          <path
             d="M 0,0 C 1.548,-0.834 2.867,-2.445 4.082,-3.965 4.337,-4.284 4.598,-4.614 4.757,-4.967 4.956,-5.412 4.967,-5.837 4.974,-6.241 5.001,-7.972 4.321,-14.044 2.515,-9.061 1.892,-7.342 1.587,-6.179 0.58,-4.469 -0.189,-3.164 -2.161,0.182 0,0"
             style="fill:#ffffff;fill-opacity:1;fill-rule:nonzero;stroke:none"
             id="path188" />
        </g>
        <g
           id="g190"
           transform="translate(453.6967,1401.6798)">
          <path
             d="m 0,0 c -1.743,-0.23 -3.548,-1.267 -5.224,-2.257 -0.352,-0.208 -0.713,-0.423 -0.987,-0.697 -0.344,-0.345 -0.506,-0.738 -0.655,-1.114 -0.64,-1.608 -2.161,-7.525 1.297,-3.509 1.192,1.386 1.891,2.364 3.439,3.605 C -0.947,-3.025 2.084,-0.597 0,0"
             style="fill:#ffffff;fill-opacity:1;fill-rule:nonzero;stroke:none"
             id="path192" />
        </g>
        <g
           id="g194"
           transform="translate(445.5233,1410.5505)">
          <path
             d="m 0,0 c -2.272,-2.143 -4.053,-5.486 -5.689,-8.627 -0.343,-0.659 -0.694,-1.338 -0.88,-2.009 -0.235,-0.845 -0.18,-1.567 -0.12,-2.251 0.255,-2.931 4.147,-9.106 4.32,-3.582 0.14,4.477 -0.451,5.115 0.827,8.476 C -0.567,-5.426 3.34,1.335 0,0"
             style="fill:#ffffff;fill-opacity:1;fill-rule:nonzero;stroke:none"
             id="path196" />
        </g>
        <g
           id="g198"
           transform="translate(637.9169,1353.4983)">
          <path
             d="m 0,0 c 0.257,-1.739 -0.246,-3.76 -0.738,-5.643 -0.103,-0.395 -0.211,-0.801 -0.4,-1.14 -0.237,-0.425 -0.571,-0.689 -0.891,-0.935 -1.371,-1.057 -6.644,-4.142 -3.73,0.285 1.005,1.526 1.755,2.466 2.523,4.296 C -2.649,-1.74 -1.146,1.841 0,0"
             style="fill:#ffffff;fill-opacity:1;fill-rule:nonzero;stroke:none"
             id="path200" />
        </g>
        <g
           id="g202"
           transform="translate(645,1353)">
          <path
             d="m 0,0 c 0,-3 -0.885,-5.099 -3,-8 -0.444,-0.608 -1.527,-2.259 -2.012,-2.76 -0.61,-0.629 -1.183,-0.98 -1.728,-1.306 -2.332,-1.4 -10.468,-5.223 -3.658,1.23 2.348,2.226 3.931,3.569 6.289,6.326 C -2.308,-2.405 0.366,3.174 0,0"
             style="fill:#ffffff;fill-opacity:1;fill-rule:nonzero;stroke:none"
             id="path204" />
        </g>
        <g
           id="g206"
           transform="translate(660.9607,1340.2524)">
          <path
             d="m 0,0 c -1.88,-2.493 -5.007,-4.632 -7.95,-6.602 -0.617,-0.414 -1.253,-0.837 -1.9,-1.096 -0.814,-0.326 -1.537,-0.351 -2.224,-0.367 -2.941,-0.069 -9.506,3.121 -4.035,3.9 4.435,0.632 5.134,0.115 8.334,1.754 C -5.331,-1.16 0.96,3.466 0,0"
             style="fill:#ffffff;fill-opacity:1;fill-rule:nonzero;stroke:none"
             id="path208" />
        </g>
      </g>
    </g>
  </g>
</svg>
